<svg xmlns="http://www.w3.org/2000/svg" width="94.299" height="78.776" viewBox="0 0 94.299 78.776">
  <g id="logo-logo" transform="translate(0 0)">
    <g id="Group_7334" data-name="Group 7334" transform="translate(0 0)">
      <g id="Group_7327" data-name="Group 7327" transform="translate(31.85 25.167)">
        <path id="Path_654" data-name="Path 654" d="M903.932-1075.4l-10.273,10.272a6.134,6.134,0,0,1-8.676,0h0a6.134,6.134,0,0,1,0-8.676l10.243-10.244a10.655,10.655,0,0,0-14.473.549l-32.306,32.3,15.062,15.062a10.664,10.664,0,0,0,15.081,0l32.306-32.3-6.963-6.963" transform="translate(-848.447 1086.614)" fill="#ee161f"/>
      </g>
      <g id="Group_7328" data-name="Group 7328" transform="translate(0 1.106)">
        <path id="Path_655" data-name="Path 655" d="M660.91-1192.862l-31.851-31.851c7.757.772,11.237,2.512,16.069,5.689.617-13.726,7.541-26.747,15.73-33.323-9.118,17.174-8.343,43.907.051,59.485" transform="translate(-629.059 1252.347)" fill="#ee161f"/>
      </g>
      <g id="Group_7329" data-name="Group 7329" transform="translate(29.835 18.119)">
        <path id="Path_656" data-name="Path 656" d="M834.561-1135.163a29.536,29.536,0,0,0,4.916,4.161c.866.6,1.744,1.169,2.631,1.7a26.487,26.487,0,0,0,2.665,1.4l1.925.856-1.371,1.816a33.994,33.994,0,0,0-5.464,12.452,58.309,58.309,0,0,0-1.252,6.955q-.219,1.771-.294,3.569a22.816,22.816,0,0,0,.09,3.642,13.411,13.411,0,0,1-1.378-3.5,24.781,24.781,0,0,1-.643-3.725,31.961,31.961,0,0,1,.18-7.567,30.723,30.723,0,0,1,1.987-7.4,23.2,23.2,0,0,1,4.11-6.654l.555,2.671a18.286,18.286,0,0,1-2.887-2.042,22.129,22.129,0,0,1-2.443-2.418,18.755,18.755,0,0,1-2.015-2.768,11.411,11.411,0,0,1-1.311-3.14" transform="translate(-834.561 1135.163)" fill="#ee161f"/>
      </g>
      <g id="Group_7330" data-name="Group 7330" transform="translate(34.216 7.51)">
        <path id="Path_657" data-name="Path 657" d="M864.74-1196.384a16.616,16.616,0,0,1,.589-2.571,21.959,21.959,0,0,1,.924-2.485c.348-.812.738-1.6,1.138-2.377s.825-1.539,1.26-2.29l1.235-2.127,1.18,2.394c.59,1.2,1.246,2.365,1.943,3.506s1.445,2.255,2.234,3.338,1.61,2.141,2.463,3.171,1.752,2.017,2.674,2.968l1.219,1.259-1.147,1.294a49.061,49.061,0,0,0-4.362,5.835,62.733,62.733,0,0,0-3.638,6.437,53.176,53.176,0,0,0-2.8,6.889,44.215,44.215,0,0,0-1.7,7.369,24.162,24.162,0,0,1-.271-3.86,28.075,28.075,0,0,1,.274-3.891,38.274,38.274,0,0,1,1.887-7.6,46.079,46.079,0,0,1,3.283-7.135c.648-1.141,1.338-2.263,2.094-3.346a33.26,33.26,0,0,1,2.447-3.172l.073,2.552a37.725,37.725,0,0,1-2.911-3.244,41.133,41.133,0,0,1-2.534-3.521,38.21,38.21,0,0,1-2.133-3.782,31.149,31.149,0,0,1-1.654-4.031l2.415.268c-1.076,1.325-2.173,2.624-3.219,3.958-.521.668-1.03,1.344-1.529,2.038s-.965,1.418-1.435,2.158" transform="translate(-864.74 1208.233)" fill="#ee161f"/>
      </g>
      <g id="Group_7331" data-name="Group 7331" transform="translate(41.526)">
        <path id="Path_658" data-name="Path 658" d="M918.333-1246.851q.456-1.486,1.034-2.927t1.26-2.85a31.19,31.19,0,0,1,3.328-5.374l1.531-1.962.833,2.533c.509,1.547,1.113,3.091,1.747,4.621s1.316,3.049,2.033,4.545,1.46,2.975,2.244,4.413a35.746,35.746,0,0,0,2.527,4.051l1.041,1.406-1.286,1.137c-1.968,1.741-3.908,3.7-5.777,5.67-1.867,1.984-3.69,4.015-5.422,6.119a70.013,70.013,0,0,0-4.863,6.554,25.167,25.167,0,0,0-3.461,7.406,14.7,14.7,0,0,1,.521-4.2,26.143,26.143,0,0,1,1.4-4.026,48.2,48.2,0,0,1,4.128-7.422,73.607,73.607,0,0,1,5.113-6.744c.914-1.074,1.851-2.131,2.831-3.154s1.973-2.033,3.071-3.007l-.245,2.543a32.071,32.071,0,0,1-2.856-4.57c-.822-1.548-1.545-3.128-2.225-4.723s-1.285-3.217-1.822-4.868a45.405,45.405,0,0,1-1.373-5.059l2.365.573a48.712,48.712,0,0,0-3.961,4.438c-.628.79-1.245,1.6-1.866,2.409l-1.854,2.467" transform="translate(-915.095 1259.964)" fill="#ee161f"/>
      </g>
      <g id="Group_7332" data-name="Group 7332" transform="translate(69.438 38.223)">
        <path id="Path_659" data-name="Path 659" d="M1114.845-992.934a3.747,3.747,0,0,1-3.748,3.747,3.748,3.748,0,0,1-3.748-3.747,3.748,3.748,0,0,1,3.748-3.747,3.747,3.747,0,0,1,3.748,3.747" transform="translate(-1107.349 996.681)" fill="#ee161f"/>
      </g>
      <g id="Group_7333" data-name="Group 7333" transform="translate(4.261 16.434)">
        <path id="Path_660" data-name="Path 660" d="M668.914-1141.515a5.251,5.251,0,0,1-5.252,5.252,5.253,5.253,0,0,1-5.252-5.252,5.253,5.253,0,0,1,5.252-5.252,5.251,5.251,0,0,1,5.252,5.252" transform="translate(-658.41 1146.767)" fill="#ee161f"/>
      </g>
    </g>
  </g>
</svg>
