<svg xmlns="http://www.w3.org/2000/svg" width="495.167" height="78.776" viewBox="0 0 495.167 78.776">
  <g id="print" transform="translate(-904.844 -378.833)">
    <g id="text-logo-path" transform="translate(1019.395 407.831)">
      <path id="Path_653" data-name="Path 653" d="M2.747-18.156h0V-35.348a1.268,1.268,0,0,1,.407-.939h0a1.269,1.269,0,0,1,.95-.386H7.8a5.5,5.5,0,0,1,3.142.95h0a5.694,5.694,0,0,1,2.067,2.474h0a7.137,7.137,0,0,1,.324,1.086,5.332,5.332,0,0,1,.115,1.106h0a5.282,5.282,0,0,1-.981,3.142h0a4.834,4.834,0,0,1-.418.574,4.587,4.587,0,0,1-.48.491h0a.541.541,0,0,0-.167.324.432.432,0,0,0,.084.324h0a4.79,4.79,0,0,1,.929,2.2h0q.084.491.167,1.148t.2,1.388q.094.72.188,1.378t.177,1.106h0l.073.616a1.176,1.176,0,0,1,.021.209h0a1.333,1.333,0,0,1-.271.793h0a1.3,1.3,0,0,1-.887.522h0a.4.4,0,0,1-.188.031h0a1.289,1.289,0,0,1-.866-.324,1.407,1.407,0,0,1-.47-.846h0q0-.021-.094-.689t-.209-1.576q-.115-.908-.261-1.848t-.219-1.534h0a2.035,2.035,0,0,0-.7-1.263h0a2.013,2.013,0,0,0-1.367-.522H5.921a.5.5,0,0,0-.355.136.459.459,0,0,0-.136.355h0v6.764a1.308,1.308,0,0,1-.4.96,1.267,1.267,0,0,1-.929.386h0a1.3,1.3,0,0,1-.96-.386A1.308,1.308,0,0,1,2.747-18.156ZM5.43-33.532v4.969a.442.442,0,0,0,.136.324.5.5,0,0,0,.355.136H7.8a2.86,2.86,0,0,0,1.649-.491h0a2.8,2.8,0,0,0,1.086-1.294h0a3.724,3.724,0,0,0,.219-1.169h0a3.023,3.023,0,0,0-.491-1.649h0a2.993,2.993,0,0,0-1.294-1.065h0a3,3,0,0,0-1.169-.24H5.921a.5.5,0,0,0-.355.136.467.467,0,0,0-.136.344ZM15.889-18.156h0V-35.348a1.3,1.3,0,0,1,.386-.939,1.279,1.279,0,0,1,.939-.386h0a1.267,1.267,0,0,1,.929.386,1.3,1.3,0,0,1,.386.939h0v17.192a1.326,1.326,0,0,1-.386.96,1.267,1.267,0,0,1-.929.386h0a1.279,1.279,0,0,1-.939-.386A1.326,1.326,0,0,1,15.889-18.156Zm4.645-3.914h0V-31.5a5.345,5.345,0,0,1,.219-1.524,4.39,4.39,0,0,1,.678-1.378h0a4.846,4.846,0,0,1,2.307-1.889h0a4.857,4.857,0,0,1,2.015-.418h.031a5.015,5.015,0,0,1,2.9.887h0A5.953,5.953,0,0,1,29.8-34.805a4.587,4.587,0,0,1,.772,1.273h0a5.148,5.148,0,0,1,.418,2.035h0a1.319,1.319,0,0,1-.4.95,1.268,1.268,0,0,1-.939.407h0a1.268,1.268,0,0,1-.939-.407,1.337,1.337,0,0,1-.386-.95h0a2.615,2.615,0,0,0-.438-1.4h0a2.868,2.868,0,0,0-1.138-.929h0a2.465,2.465,0,0,0-.971-.209h0a2.689,2.689,0,0,0-.762.1,2.6,2.6,0,0,0-.678.313h0a2.5,2.5,0,0,0-.929,1.138h0a2.388,2.388,0,0,0-.219.981h0v9.426a2.662,2.662,0,0,0,.438,1.43h0a2.868,2.868,0,0,0,1.138.929h0a2.458,2.458,0,0,0,1.013.188h0a2.353,2.353,0,0,0,1.4-.438h0a2.513,2.513,0,0,0,.929-1.117h0a2.51,2.51,0,0,0,.219-.992h0v-1.608A.465.465,0,0,0,28.2-24a.48.48,0,0,0-.355-.136H26.672a1.284,1.284,0,0,1-.939-.4,1.3,1.3,0,0,1-.386-.96h0a1.3,1.3,0,0,1,.386-.939,1.284,1.284,0,0,1,.939-.4h2.985a1.243,1.243,0,0,1,.95.418h0a1.233,1.233,0,0,1,.386.919h0v3.424a5.055,5.055,0,0,1-.9,2.933h0a5.4,5.4,0,0,1-2.286,1.889h0a5.236,5.236,0,0,1-2.025.407h0a5.264,5.264,0,0,1-2.944-.9h0a5.683,5.683,0,0,1-1.106-1.013,5.058,5.058,0,0,1-.783-1.294h0A5.123,5.123,0,0,1,20.534-22.07ZM33.7-18.187h0V-35.379a1.267,1.267,0,0,1,.386-.929,1.308,1.308,0,0,1,.96-.4h0a1.284,1.284,0,0,1,.939.4,1.267,1.267,0,0,1,.386.929h0v6.764a.45.45,0,0,0,.146.344.427.427,0,0,0,.324.146h3.883a.465.465,0,0,0,.324-.136.48.48,0,0,0,.136-.355h0v-6.764a1.25,1.25,0,0,1,.4-.929,1.25,1.25,0,0,1,.929-.4h0a1.32,1.32,0,0,1,.971.4,1.25,1.25,0,0,1,.4.929h0v17.192a1.286,1.286,0,0,1-.4.96,1.339,1.339,0,0,1-.971.386h0a1.267,1.267,0,0,1-.929-.386,1.286,1.286,0,0,1-.4-.96h0v-6.785a.5.5,0,0,0-.136-.355.465.465,0,0,0-.324-.136H36.839a.442.442,0,0,0-.324.136.442.442,0,0,0-.146.355h0v6.785a1.3,1.3,0,0,1-.386.96,1.3,1.3,0,0,1-.939.386h0a1.326,1.326,0,0,1-.96-.386A1.3,1.3,0,0,1,33.7-18.187ZM45.847-35.4h0a1.3,1.3,0,0,1,.386-.939,1.3,1.3,0,0,1,.939-.386h8.664a1.3,1.3,0,0,1,.939.386,1.3,1.3,0,0,1,.386.939h0a1.267,1.267,0,0,1-.386.929,1.284,1.284,0,0,1-.939.4H53.332a.433.433,0,0,0-.334.136.5.5,0,0,0-.125.355h0v15.428a1.268,1.268,0,0,1-.407.939,1.3,1.3,0,0,1-.95.407h0a1.235,1.235,0,0,1-.929-.407,1.284,1.284,0,0,1-.4-.939h0V-33.584a.48.48,0,0,0-.136-.355.48.48,0,0,0-.355-.136H47.173a1.284,1.284,0,0,1-.939-.4A1.267,1.267,0,0,1,45.847-35.4Zm12.276,3.5h0a4.556,4.556,0,0,1,.219-1.409,5.11,5.11,0,0,1,.595-1.263h0a4.953,4.953,0,0,1,2.109-1.712h0a4.374,4.374,0,0,1,1.858-.386h0a4.635,4.635,0,0,1,2.672.8h0a5.056,5.056,0,0,1,1.743,2.1h0a4.932,4.932,0,0,1,.355,1.868h0a1.284,1.284,0,0,1-.4.939,1.25,1.25,0,0,1-.929.4h0a1.284,1.284,0,0,1-.939-.4,1.284,1.284,0,0,1-.4-.939h0a2.246,2.246,0,0,0-.344-1.19h0a2.268,2.268,0,0,0-.96-.762h0a2.12,2.12,0,0,0-.8-.157h-.042a1.937,1.937,0,0,0-1.138.376h0a2,2,0,0,0-.752.929h0a1.957,1.957,0,0,0-.167.8h0a2.116,2.116,0,0,0,.188.9h0a3.547,3.547,0,0,0,.574,1.013h0a6.951,6.951,0,0,0,.866.981q.543.532,1.357,1.242h0q.355.3.772.668a10.958,10.958,0,0,1,.835.793h0q.428.438.741.825t.574.772h0a5.227,5.227,0,0,1,.626,1.221h0a5.2,5.2,0,0,1,.386,1.91h0a4.572,4.572,0,0,1-.835,2.651h0a4.981,4.981,0,0,1-2.1,1.733h0a4.707,4.707,0,0,1-1.837.386h0a4.669,4.669,0,0,1-2.693-.835h0a4.787,4.787,0,0,1-1.733-2.1h0a4.8,4.8,0,0,1-.355-1.837h0a1.32,1.32,0,0,1,.4-.971,1.284,1.284,0,0,1,.939-.4h0a1.25,1.25,0,0,1,.929.4,1.32,1.32,0,0,1,.4.971h0a2.2,2.2,0,0,0,.355,1.169h0a2.364,2.364,0,0,0,.919.752h0a2.336,2.336,0,0,0,.846.157h0a2.076,2.076,0,0,0,1.169-.344h0a2.345,2.345,0,0,0,.752-.929h0a2.308,2.308,0,0,0,.157-.835h0a2.116,2.116,0,0,0-.188-.9h0a3.686,3.686,0,0,0-.543-.981h0a12.5,12.5,0,0,0-.877-1,17.87,17.87,0,0,0-1.367-1.253h0L61-26.674a11.369,11.369,0,0,1-.992-1.013h0A7.439,7.439,0,0,1,58.5-29.993h0A5.323,5.323,0,0,1,58.123-31.9ZM76.14-18.135h0v-13.33A5.222,5.222,0,0,1,76.369-33a5.31,5.31,0,0,1,.668-1.367h0a4.908,4.908,0,0,1,2.307-1.9h0a5.288,5.288,0,0,1,2.046-.407h0a5.049,5.049,0,0,1,2.923.887h0a4.908,4.908,0,0,1,1.868,2.276h0a5.208,5.208,0,0,1,.438,2.046h0v13.33a1.284,1.284,0,0,1-.4.939,1.326,1.326,0,0,1-.96.386h0a1.3,1.3,0,0,1-.939-.386,1.3,1.3,0,0,1-.386-.939h0v-5.491a.467.467,0,0,0-.136-.344.462.462,0,0,0-.355-.146H79.323a.462.462,0,0,0-.355.146.467.467,0,0,0-.136.344h0v5.491a1.284,1.284,0,0,1-.4.939,1.3,1.3,0,0,1-.96.386h0a1.3,1.3,0,0,1-.939-.386A1.284,1.284,0,0,1,76.14-18.135Zm2.693-13.33v4.217a.4.4,0,0,0,.136.324.5.5,0,0,0,.355.125h4.123a.488.488,0,0,0,.344-.125.388.388,0,0,0,.146-.324h0v-4.217a2.31,2.31,0,0,0-.438-1.409h0a2.607,2.607,0,0,0-1.117-.929h0a2.617,2.617,0,0,0-.992-.209h0a2.816,2.816,0,0,0-1.451.428h0a2.447,2.447,0,0,0-.919,1.138h0a1.294,1.294,0,0,0-.146.48,3.172,3.172,0,0,0-.042.5ZM89.3-18.135h0V-31.5a5.12,5.12,0,0,1,.23-1.524A4.865,4.865,0,0,1,90.2-34.4h0a4.846,4.846,0,0,1,2.307-1.889h0a5.173,5.173,0,0,1,2.046-.418h0a5.049,5.049,0,0,1,2.923.887h0a4.984,4.984,0,0,1,1.868,2.286h0a5.185,5.185,0,0,1,.438,2.035h0v13.361a1.284,1.284,0,0,1-.4.939,1.3,1.3,0,0,1-.939.386h0a1.337,1.337,0,0,1-.95-.386,1.268,1.268,0,0,1-.407-.939h0V-31.5a2.294,2.294,0,0,0-.438-1.4h0a2.449,2.449,0,0,0-1.106-.929h0a2.672,2.672,0,0,0-.992-.209h0a2.867,2.867,0,0,0-1.451.418h0a2.5,2.5,0,0,0-.929,1.138h0a1.755,1.755,0,0,0-.146.48,3.312,3.312,0,0,0-.042.5h0v13.361a1.3,1.3,0,0,1-.386.939,1.3,1.3,0,0,1-.96.386h0A1.3,1.3,0,0,1,89.7-17.2,1.284,1.284,0,0,1,89.3-18.135Zm13.3-.052h0V-35.379a1.319,1.319,0,0,1,.4-.95h0a1.25,1.25,0,0,1,.919-.376h3.351a5.561,5.561,0,0,1,3.142.95h0a6.012,6.012,0,0,1,2.046,2.474h0a5.58,5.58,0,0,1,.438,2.2h0v8.6a5.5,5.5,0,0,1-.96,3.152h0a5.285,5.285,0,0,1-2.495,2.025h0a5.384,5.384,0,0,1-2.171.459h-3.309a1.336,1.336,0,0,1-.96-.407h0A1.253,1.253,0,0,1,102.6-18.187Zm2.683-15.376v13.57a.442.442,0,0,0,.136.324.462.462,0,0,0,.355.146h1.493a3.074,3.074,0,0,0,1.66-.491h0a3.061,3.061,0,0,0,1.065-1.3h0a3.044,3.044,0,0,0,.23-1.159h0v-8.6a3.123,3.123,0,0,0-.511-1.66h0a2.872,2.872,0,0,0-1.3-1.065h0a2.891,2.891,0,0,0-1.138-.23h-1.493a.5.5,0,0,0-.355.125.467.467,0,0,0-.136.344Zm16.493,15.407h0V-35.348a1.284,1.284,0,0,1,.4-.939h0a1.3,1.3,0,0,1,.96-.386h3.7a5.5,5.5,0,0,1,3.142.95h0a5.694,5.694,0,0,1,2.067,2.474h0a7.137,7.137,0,0,1,.324,1.086,5.33,5.33,0,0,1,.115,1.106h0a5.282,5.282,0,0,1-.981,3.142h0a4.835,4.835,0,0,1-.418.574,4.587,4.587,0,0,1-.48.491h0a.54.54,0,0,0-.167.324.432.432,0,0,0,.084.324h0a4.79,4.79,0,0,1,.929,2.2h0q.073.491.167,1.148t.2,1.388q.094.72.188,1.378t.177,1.106h0l.073.616a1.175,1.175,0,0,1,.021.209h0a1.333,1.333,0,0,1-.271.793h0a1.3,1.3,0,0,1-.887.522h0a.4.4,0,0,1-.188.031h0a1.289,1.289,0,0,1-.866-.324,1.407,1.407,0,0,1-.47-.846h0q0-.021-.094-.689t-.209-1.576q-.115-.908-.261-1.848t-.219-1.534h0a2.035,2.035,0,0,0-.7-1.263h0a2.013,2.013,0,0,0-1.367-.522H124.95a.48.48,0,0,0-.355.136.459.459,0,0,0-.136.355h0v6.764a1.308,1.308,0,0,1-.4.96,1.267,1.267,0,0,1-.929.386h0a1.3,1.3,0,0,1-.96-.386A1.308,1.308,0,0,1,121.776-18.156Zm2.683-15.376v4.969a.442.442,0,0,0,.136.324.48.48,0,0,0,.355.136h1.879a2.86,2.86,0,0,0,1.649-.491h0a2.8,2.8,0,0,0,1.086-1.294h0a3.724,3.724,0,0,0,.219-1.169h0a3.023,3.023,0,0,0-.491-1.649h0A2.993,2.993,0,0,0,128-33.772h0a3,3,0,0,0-1.169-.24H124.95a.48.48,0,0,0-.355.136.467.467,0,0,0-.136.344Zm10.449,15.344h0V-35.379a1.25,1.25,0,0,1,.4-.929,1.25,1.25,0,0,1,.929-.4h6.733a1.284,1.284,0,0,1,.939.4,1.267,1.267,0,0,1,.386.929h0a1.337,1.337,0,0,1-.386.95,1.284,1.284,0,0,1-.939.4H138.05a.488.488,0,0,0-.344.125.45.45,0,0,0-.146.344h0v4.969a.43.43,0,0,0,.146.344.488.488,0,0,0,.344.125h3.56a1.3,1.3,0,0,1,.939.386,1.308,1.308,0,0,1,.4.96h0a1.284,1.284,0,0,1-.4.939,1.268,1.268,0,0,1-.939.407h-3.56a.488.488,0,0,0-.344.125.474.474,0,0,0-.146.365h0v4.948a.427.427,0,0,0,.146.324.45.45,0,0,0,.344.146h4.916a1.284,1.284,0,0,1,.939.4,1.3,1.3,0,0,1,.386.939h0a1.3,1.3,0,0,1-.386.96,1.3,1.3,0,0,1-.939.386h-6.733a1.267,1.267,0,0,1-.929-.386A1.286,1.286,0,0,1,134.908-18.187ZM146.192-31.9h0a4.555,4.555,0,0,1,.219-1.409,5.407,5.407,0,0,1,.605-1.263h0a4.886,4.886,0,0,1,2.1-1.712h0a4.374,4.374,0,0,1,1.858-.386h0a4.652,4.652,0,0,1,2.683.8h0a4.981,4.981,0,0,1,1.733,2.1h0a4.932,4.932,0,0,1,.355,1.868h0a1.3,1.3,0,0,1-.386.939,1.284,1.284,0,0,1-.939.4h0a1.284,1.284,0,0,1-.939-.4,1.284,1.284,0,0,1-.4-.939h0a2.246,2.246,0,0,0-.344-1.19h0a2.282,2.282,0,0,0-.95-.762h0a2.147,2.147,0,0,0-.814-.157h-.042a1.937,1.937,0,0,0-1.138.376h0a2.09,2.09,0,0,0-.752.929h0a2.068,2.068,0,0,0-.157.8h0a2.222,2.222,0,0,0,.177.9h0a3.918,3.918,0,0,0,.574,1.013h0a7.575,7.575,0,0,0,.877.981q.543.532,1.347,1.242h0q.365.3.772.668a10.964,10.964,0,0,1,.835.793h0a10.81,10.81,0,0,1,.752.825q.3.4.574.772h0a4.9,4.9,0,0,1,.616,1.221h0a5.2,5.2,0,0,1,.386,1.91h0a4.572,4.572,0,0,1-.835,2.651h0a4.994,4.994,0,0,1-2.088,1.733h0a4.783,4.783,0,0,1-1.848.386h0a4.621,4.621,0,0,1-2.683-.835h0a4.763,4.763,0,0,1-1.743-2.1h0a4.8,4.8,0,0,1-.355-1.837h0a1.32,1.32,0,0,1,.4-.971,1.284,1.284,0,0,1,.939-.4h0a1.284,1.284,0,0,1,.939.4,1.339,1.339,0,0,1,.386.971h0a2.2,2.2,0,0,0,.355,1.169h0a2.364,2.364,0,0,0,.919.752h0a2.336,2.336,0,0,0,.845.157h0a2.076,2.076,0,0,0,1.169-.344h0a2.345,2.345,0,0,0,.752-.929h0a2.181,2.181,0,0,0,.167-.835h0a2.116,2.116,0,0,0-.188-.9h0a3.687,3.687,0,0,0-.543-.981h0q-.365-.459-.887-1a17.867,17.867,0,0,0-1.367-1.253h0q-.522-.459-1.044-.929a10.588,10.588,0,0,1-1-1.013h0a7.272,7.272,0,0,1-1.5-2.307h0A5.2,5.2,0,0,1,146.192-31.9Zm12.1,13.747h0V-35.348a1.272,1.272,0,0,1,.365-.939h0a1.3,1.3,0,0,1,.96-.386h3.038a6.307,6.307,0,0,1,3.539,1.065h0a6.293,6.293,0,0,1,2.276,2.766h0a6.326,6.326,0,0,1,.491,2.432h0a6.237,6.237,0,0,1-1.086,3.528h0a6.1,6.1,0,0,1-2.777,2.255h0a5.751,5.751,0,0,1-2.443.511h-1.221a.442.442,0,0,0-.324.136h0a.459.459,0,0,0-.167.334h0v5.491a1.308,1.308,0,0,1-.4.96,1.267,1.267,0,0,1-.929.386h0a1.3,1.3,0,0,1-.939-.386A1.326,1.326,0,0,1,158.29-18.156Zm2.651-15.376v6.284a.43.43,0,0,0,.136.313.5.5,0,0,0,.355.136h1.221a3.631,3.631,0,0,0,2.036-.626h0a3.432,3.432,0,0,0,1.3-1.576h0a3.766,3.766,0,0,0,.271-1.409h0a3.575,3.575,0,0,0-.616-2.015h0a3.475,3.475,0,0,0-1.587-1.294h0a3.237,3.237,0,0,0-1.347-.292h-1.284a.5.5,0,0,0-.355.136.467.467,0,0,0-.136.344ZM171.129-22.07h0V-31.5a5.12,5.12,0,0,1,.23-1.524,5.268,5.268,0,0,1,.668-1.378h0a4.846,4.846,0,0,1,2.307-1.889h0a5.173,5.173,0,0,1,2.046-.418h0a5.049,5.049,0,0,1,2.923.887h0a4.9,4.9,0,0,1,1.868,2.286h0a5.186,5.186,0,0,1,.438,2.035h0v9.426a5.215,5.215,0,0,1-.9,2.933h0a6.113,6.113,0,0,1-1.013,1.106,4.694,4.694,0,0,1-1.294.783h0a5.236,5.236,0,0,1-2.025.407h0a5.215,5.215,0,0,1-2.933-.9h0a6.114,6.114,0,0,1-1.107-1.013,5.122,5.122,0,0,1-.8-1.294h0A5.236,5.236,0,0,1,171.129-22.07Zm2.693-9.426v9.426a2.432,2.432,0,0,0,.438,1.43h0a2.449,2.449,0,0,0,1.106.929h0a2.7,2.7,0,0,0,1.013.188h0a2.433,2.433,0,0,0,1.43-.438h0a2.513,2.513,0,0,0,.929-1.117h0a2.593,2.593,0,0,0,.188-.992h0V-31.5a2.293,2.293,0,0,0-.438-1.4h0a2.513,2.513,0,0,0-1.117-.929h0a2.617,2.617,0,0,0-.992-.209h0a2.868,2.868,0,0,0-1.451.418h0a2.454,2.454,0,0,0-.908,1.138h0a2.047,2.047,0,0,0-.157.48,3.312,3.312,0,0,0-.042.5Zm10.365,13.361h0V-31.5a5.12,5.12,0,0,1,.23-1.524,4.865,4.865,0,0,1,.668-1.378h0a4.846,4.846,0,0,1,2.307-1.889h0a5.148,5.148,0,0,1,2.035-.418h0a5.1,5.1,0,0,1,2.933.887h0a4.984,4.984,0,0,1,1.868,2.286h0a5.186,5.186,0,0,1,.438,2.035h0v13.361a1.284,1.284,0,0,1-.4.939,1.3,1.3,0,0,1-.939.386h0a1.337,1.337,0,0,1-.95-.386,1.268,1.268,0,0,1-.407-.939h0V-31.5a2.294,2.294,0,0,0-.438-1.4h0a2.45,2.45,0,0,0-1.106-.929h0a2.7,2.7,0,0,0-1-.209h0a2.851,2.851,0,0,0-1.44.418h0a2.5,2.5,0,0,0-.929,1.138h0a1.755,1.755,0,0,0-.146.48,3.31,3.31,0,0,0-.042.5h0v13.361a1.3,1.3,0,0,1-.386.939,1.326,1.326,0,0,1-.96.386h0a1.3,1.3,0,0,1-.939-.386A1.284,1.284,0,0,1,184.188-18.135Zm13-13.768h0a4.556,4.556,0,0,1,.219-1.409,5.406,5.406,0,0,1,.605-1.263h0a4.953,4.953,0,0,1,2.109-1.712h0a4.348,4.348,0,0,1,1.848-.386h0a4.652,4.652,0,0,1,2.683.8h0a4.981,4.981,0,0,1,1.733,2.1h0a4.932,4.932,0,0,1,.355,1.868h0a1.3,1.3,0,0,1-.386.939,1.284,1.284,0,0,1-.939.4h0a1.284,1.284,0,0,1-.939-.4,1.284,1.284,0,0,1-.4-.939h0a2.246,2.246,0,0,0-.344-1.19h0a2.282,2.282,0,0,0-.95-.762h0a2.146,2.146,0,0,0-.814-.157h-.031a1.953,1.953,0,0,0-1.148.376h0a2.09,2.09,0,0,0-.752.929h0a2.069,2.069,0,0,0-.157.8h0a2.116,2.116,0,0,0,.188.9h0a3.662,3.662,0,0,0,.564,1.013h0a7.577,7.577,0,0,0,.877.981q.543.532,1.347,1.242h0q.365.3.783.668a9.717,9.717,0,0,1,.825.793h0a10.818,10.818,0,0,1,.752.825q.313.4.574.772h0a5.226,5.226,0,0,1,.626,1.221h0a5.323,5.323,0,0,1,.376,1.91h0a4.572,4.572,0,0,1-.835,2.651h0a4.91,4.91,0,0,1-2.088,1.733h0a4.783,4.783,0,0,1-1.848.386h0a4.621,4.621,0,0,1-2.683-.835h0a4.763,4.763,0,0,1-1.743-2.1h0a4.8,4.8,0,0,1-.355-1.837h0a1.32,1.32,0,0,1,.4-.971,1.284,1.284,0,0,1,.939-.4h0a1.284,1.284,0,0,1,.939.4,1.339,1.339,0,0,1,.386.971h0a2.155,2.155,0,0,0,.365,1.169h0a2.286,2.286,0,0,0,.908.752h0a2.391,2.391,0,0,0,.846.157h0a2.044,2.044,0,0,0,1.169-.344h0a2.231,2.231,0,0,0,.752-.929h0a2.181,2.181,0,0,0,.167-.835h0a2.116,2.116,0,0,0-.188-.9h0a3.686,3.686,0,0,0-.543-.981h0a11.515,11.515,0,0,0-.887-1,17.87,17.87,0,0,0-1.367-1.253h0q-.512-.459-1.044-.929a9.731,9.731,0,0,1-.992-1.013h0a7.2,7.2,0,0,1-1.514-2.307h0A5.2,5.2,0,0,1,197.184-31.9Zm12.1,13.747h0V-35.348a1.284,1.284,0,0,1,.4-.939,1.267,1.267,0,0,1,.929-.386h0a1.3,1.3,0,0,1,.939.386,1.3,1.3,0,0,1,.386.939h0v17.192a1.326,1.326,0,0,1-.386.96,1.3,1.3,0,0,1-.939.386h0a1.267,1.267,0,0,1-.929-.386A1.308,1.308,0,0,1,209.282-18.156Zm5.5,0h0V-35.348a1.284,1.284,0,0,1,.4-.939h0a1.291,1.291,0,0,1,.95-.386h3.706a5.593,5.593,0,0,1,3.142.95h0a5.934,5.934,0,0,1,2.035,2.474h0a5.555,5.555,0,0,1,.438,2.192h0a5.465,5.465,0,0,1-.95,3.142h0a4.084,4.084,0,0,1-.313.418q-.177.209-.365.407h0a.493.493,0,0,0-.146.334.45.45,0,0,0,.146.344h0a5.3,5.3,0,0,1,1.19,1.754h0a5.581,5.581,0,0,1,.438,2.2h0a5.546,5.546,0,0,1-.95,3.152h0A5.259,5.259,0,0,1,222-17.269h0a5.409,5.409,0,0,1-2.161.459h-3.706a1.2,1.2,0,0,1-.95-.407h0A1.275,1.275,0,0,1,214.783-18.156Zm2.672-6.764v4.958a.427.427,0,0,0,.146.324.467.467,0,0,0,.344.136h1.889a3.006,3.006,0,0,0,1.639-.491h0a2.993,2.993,0,0,0,1.065-1.294h0a3.454,3.454,0,0,0,.251-1.169h0a2.942,2.942,0,0,0-.522-1.66h0a2.865,2.865,0,0,0-1.294-1.054h0a2.783,2.783,0,0,0-1.138-.24h-1.889a.467.467,0,0,0-.344.136.442.442,0,0,0-.146.355Zm0-8.612v4.969a.418.418,0,0,0,.146.334.488.488,0,0,0,.344.125h1.889a3.006,3.006,0,0,0,1.639-.491h0a2.993,2.993,0,0,0,1.065-1.294h0a3.454,3.454,0,0,0,.251-1.169h0a3.028,3.028,0,0,0-.522-1.649h0a2.729,2.729,0,0,0-1.294-1.065h0a2.782,2.782,0,0,0-1.138-.24h-1.889a.467.467,0,0,0-.344.136.45.45,0,0,0-.146.344Zm10.407,15.376h0V-35.348a1.3,1.3,0,0,1,.386-.939,1.3,1.3,0,0,1,.939-.386h0a1.267,1.267,0,0,1,.929.386,1.284,1.284,0,0,1,.4.939h0v17.192a1.308,1.308,0,0,1-.4.96,1.267,1.267,0,0,1-.929.386h0a1.3,1.3,0,0,1-.939-.386A1.326,1.326,0,0,1,227.862-18.156Zm5.376,0h0V-35.348a1.253,1.253,0,0,1,.417-.939,1.337,1.337,0,0,1,.95-.386h0a1.3,1.3,0,0,1,.939.386,1.3,1.3,0,0,1,.386.939h0v15.386a.442.442,0,0,0,.136.324.5.5,0,0,0,.355.136h3.372a1.25,1.25,0,0,1,.929.4,1.3,1.3,0,0,1,.4.95h0a1.308,1.308,0,0,1-.4.96,1.267,1.267,0,0,1-.929.386h-5.188a1.337,1.337,0,0,1-.95-.386A1.276,1.276,0,0,1,233.238-18.156Zm9.582,0h0V-35.348a1.284,1.284,0,0,1,.4-.939,1.266,1.266,0,0,1,.929-.386h0a1.3,1.3,0,0,1,.939.386,1.3,1.3,0,0,1,.386.939h0v17.192a1.326,1.326,0,0,1-.386.96,1.3,1.3,0,0,1-.939.386h0a1.266,1.266,0,0,1-.929-.386A1.308,1.308,0,0,1,242.82-18.156ZM247.392-35.4h0a1.284,1.284,0,0,1,.4-.939,1.267,1.267,0,0,1,.929-.386h8.674a1.267,1.267,0,0,1,.929.386,1.3,1.3,0,0,1,.386.939h0a1.267,1.267,0,0,1-.386.929,1.25,1.25,0,0,1-.929.4h-2.505a.446.446,0,0,0-.344.136.5.5,0,0,0-.125.355h0v15.428a1.268,1.268,0,0,1-.407.939,1.268,1.268,0,0,1-.939.407h0a1.268,1.268,0,0,1-.939-.407,1.3,1.3,0,0,1-.386-.939h0V-33.584a.462.462,0,0,0-.146-.355.467.467,0,0,0-.344-.136h-2.536a1.25,1.25,0,0,1-.929-.4A1.25,1.25,0,0,1,247.392-35.4Zm13.413,17.244h0V-35.348a1.3,1.3,0,0,1,.386-.939,1.3,1.3,0,0,1,.939-.386h0a1.267,1.267,0,0,1,.929.386,1.284,1.284,0,0,1,.4.939h0v17.192a1.308,1.308,0,0,1-.4.96,1.267,1.267,0,0,1-.929.386h0a1.3,1.3,0,0,1-.939-.386A1.326,1.326,0,0,1,260.806-18.156Zm5.5-.031h0V-35.379a1.267,1.267,0,0,1,.386-.929,1.284,1.284,0,0,1,.939-.4h6.733a1.25,1.25,0,0,1,.929.4,1.25,1.25,0,0,1,.4.929h0a1.319,1.319,0,0,1-.4.95,1.25,1.25,0,0,1-.929.4h-4.917a.5.5,0,0,0-.355.125.467.467,0,0,0-.136.344h0v4.969a.446.446,0,0,0,.136.344.5.5,0,0,0,.355.125H273a1.3,1.3,0,0,1,.939.386,1.308,1.308,0,0,1,.4.96h0a1.284,1.284,0,0,1-.4.939,1.268,1.268,0,0,1-.939.407h-3.549a.5.5,0,0,0-.355.125.494.494,0,0,0-.136.365h0v4.948a.442.442,0,0,0,.136.324.462.462,0,0,0,.355.146h4.917a1.25,1.25,0,0,1,.929.4,1.284,1.284,0,0,1,.4.939h0a1.286,1.286,0,0,1-.4.96,1.267,1.267,0,0,1-.929.386h-6.733a1.3,1.3,0,0,1-.939-.386A1.3,1.3,0,0,1,266.307-18.187ZM277.58-31.9h0a4.556,4.556,0,0,1,.219-1.409,5.408,5.408,0,0,1,.605-1.263h0a4.953,4.953,0,0,1,2.109-1.712h0a4.373,4.373,0,0,1,1.858-.386h0a4.635,4.635,0,0,1,2.672.8h0a4.982,4.982,0,0,1,1.733,2.1h0a4.809,4.809,0,0,1,.365,1.868h0a1.284,1.284,0,0,1-.4.939,1.25,1.25,0,0,1-.929.4h0a1.284,1.284,0,0,1-.939-.4,1.268,1.268,0,0,1-.407-.939h0a2.246,2.246,0,0,0-.344-1.19h0a2.2,2.2,0,0,0-.95-.762h0a2.119,2.119,0,0,0-.8-.157h-.042a1.906,1.906,0,0,0-1.138.376h0a2.067,2.067,0,0,0-.762.929h0a2.069,2.069,0,0,0-.157.8h0a2.116,2.116,0,0,0,.188.9h0a3.663,3.663,0,0,0,.564,1.013h0a7.578,7.578,0,0,0,.877.981q.543.532,1.357,1.242h0q.355.3.772.668a9.706,9.706,0,0,1,.825.793h0a10.812,10.812,0,0,1,.752.825q.313.4.574.772h0a5.226,5.226,0,0,1,.626,1.221h0a5.2,5.2,0,0,1,.386,1.91h0a4.572,4.572,0,0,1-.835,2.651h0a4.981,4.981,0,0,1-2.1,1.733h0a4.759,4.759,0,0,1-1.837.386h0a4.669,4.669,0,0,1-2.693-.835h0a4.7,4.7,0,0,1-1.733-2.1h0a4.68,4.68,0,0,1-.365-1.837h0a1.32,1.32,0,0,1,.4-.971,1.319,1.319,0,0,1,.95-.4h0a1.25,1.25,0,0,1,.929.4,1.32,1.32,0,0,1,.4.971h0a2.2,2.2,0,0,0,.355,1.169h0a2.385,2.385,0,0,0,.908.752h0a2.419,2.419,0,0,0,.856.157h0a2.026,2.026,0,0,0,1.159-.344h0a2.314,2.314,0,0,0,.762-.929h0a2.308,2.308,0,0,0,.157-.835h0a2.117,2.117,0,0,0-.188-.9h0a3.688,3.688,0,0,0-.543-.981h0a12.492,12.492,0,0,0-.877-1,17,17,0,0,0-1.378-1.253h0q-.511-.459-1.044-.929a9.735,9.735,0,0,1-.992-1.013h0a7.2,7.2,0,0,1-1.514-2.307h0A5.2,5.2,0,0,1,277.58-31.9Zm18.027,13.768h0v-13.33a5.222,5.222,0,0,1,.23-1.534,4.9,4.9,0,0,1,.668-1.367h0a4.908,4.908,0,0,1,2.307-1.9h0a5.288,5.288,0,0,1,2.046-.407h0a5.049,5.049,0,0,1,2.923.887h0a4.907,4.907,0,0,1,1.868,2.276h0a5.209,5.209,0,0,1,.438,2.046h0v13.33a1.284,1.284,0,0,1-.4.939,1.339,1.339,0,0,1-.971.386h0a1.267,1.267,0,0,1-.929-.386,1.284,1.284,0,0,1-.4-.939h0v-5.491a.488.488,0,0,0-.125-.344.474.474,0,0,0-.365-.146h-4.113a.462.462,0,0,0-.355.146.467.467,0,0,0-.136.344h0v5.491a1.284,1.284,0,0,1-.4.939,1.3,1.3,0,0,1-.96.386h0A1.3,1.3,0,0,1,296-17.2,1.284,1.284,0,0,1,295.607-18.135Zm2.693-13.33v4.217a.4.4,0,0,0,.136.324.5.5,0,0,0,.355.125H302.9a.5.5,0,0,0,.355-.125.4.4,0,0,0,.136-.324h0v-4.217a2.31,2.31,0,0,0-.438-1.409h0a2.538,2.538,0,0,0-1.106-.929h0a2.672,2.672,0,0,0-.992-.209h0a2.816,2.816,0,0,0-1.451.428h0a2.511,2.511,0,0,0-.929,1.138h0a1.623,1.623,0,0,0-.146.48,4.222,4.222,0,0,0-.031.5Zm9.739-3.935h0a1.3,1.3,0,0,1,.386-.939,1.3,1.3,0,0,1,.939-.386h8.664a1.267,1.267,0,0,1,.929.386,1.284,1.284,0,0,1,.4.939h0a1.25,1.25,0,0,1-.4.929,1.25,1.25,0,0,1-.929.4h-2.505a.433.433,0,0,0-.334.136.5.5,0,0,0-.125.355h0v15.428a1.268,1.268,0,0,1-.407.939,1.3,1.3,0,0,1-.95.407h0a1.235,1.235,0,0,1-.929-.407,1.284,1.284,0,0,1-.4-.939h0V-33.584a.48.48,0,0,0-.136-.355.5.5,0,0,0-.355-.136h-2.526a1.284,1.284,0,0,1-.939-.4A1.266,1.266,0,0,1,308.039-35.4Zm18.758.073-.021-.021v-.084h0a1.355,1.355,0,0,1,.3-.856h0a1.3,1.3,0,0,1,.856-.522h.209a1.289,1.289,0,0,1,.866.324,1.207,1.207,0,0,1,.428.814h0v.031a.444.444,0,0,1,.021.157,2.692,2.692,0,0,0,.063.418h0l.177,1.5q.136.981.292,2.213t.344,2.63h0q.47,3.549.731,5.752t.355,2.9h0q.031.125.042.2a.849.849,0,0,1,.01.1h0a.181.181,0,0,0,.167.209h0a.364.364,0,0,0,.438-.021h0a.421.421,0,0,0,.125-.219h0l2.286-12.349a1.187,1.187,0,0,1,.438-.783,1.3,1.3,0,0,1,.856-.3h0a1.3,1.3,0,0,1,.856.3,1.368,1.368,0,0,1,.48.783h0l2.255,12.328a.6.6,0,0,0,.136.24h0a.408.408,0,0,0,.24.073h0a.335.335,0,0,0,.2-.052h0a.636.636,0,0,0,.125-.073h0a.473.473,0,0,0,.052-.167h0v-.2l.271-2.025q.136-.95.271-2.109t.292-2.422h0q.167-1.242.334-2.526t.313-2.422q.157-1.138.261-2.046t.188-1.451h0l.073-.647a1.218,1.218,0,0,1,.438-.846,1.356,1.356,0,0,1,.9-.324h.167a1.244,1.244,0,0,1,.9.522h0a1.232,1.232,0,0,1,.282.762h0a.82.82,0,0,1-.021.177h0a.018.018,0,0,1-.021.021h0q0,.063-.031.313t-.115,1q-.094.731-.271,2.067t-.449,3.549h0q-.459,3.633-.731,5.793t-.376,2.891h0a.681.681,0,0,1-.021.2.7.7,0,0,0-.01.115h0a3.033,3.033,0,0,1-.386,1.065h0a2.247,2.247,0,0,1-.668.825h0a2.962,2.962,0,0,1-1.962.7h0a2.947,2.947,0,0,1-1.952-.7h0a3.245,3.245,0,0,1-1.065-1.816h0L336.067-23q0-.24-.282-.24h0q-.209,0-.261.24h0l-.679,3.674a3.1,3.1,0,0,1-1.065,1.816h0a2.962,2.962,0,0,1-1.962.7h0a2.831,2.831,0,0,1-1.5-.407h0a2.78,2.78,0,0,1-1.117-1.117h0a3.035,3.035,0,0,1-.386-1.065h0a.7.7,0,0,0-.01-.115,1.344,1.344,0,0,1-.01-.2h0l-.083-.595q-.052-.386-.125-.877t-.125-1.065h0q-.157-1.138-.334-2.537t-.365-2.881h0q-.3-2.411-.491-3.883t-.3-2.286q-.115-.814-.136-1.106t-.031-.386ZM346.881-22.07h0V-31.5a5.119,5.119,0,0,1,.23-1.524,4.864,4.864,0,0,1,.668-1.378h0a4.847,4.847,0,0,1,2.307-1.889h0a5.148,5.148,0,0,1,2.035-.418h0a5.066,5.066,0,0,1,2.933.887h0a4.983,4.983,0,0,1,1.868,2.286h0a5.185,5.185,0,0,1,.438,2.035h0v9.426a5.215,5.215,0,0,1-.9,2.933h0a5.93,5.93,0,0,1-1.023,1.106,4.742,4.742,0,0,1-1.284.783h0a5.262,5.262,0,0,1-2.035.407h0a5.165,5.165,0,0,1-2.923-.9h0a5.954,5.954,0,0,1-1.117-1.013,4.9,4.9,0,0,1-.793-1.294h0A5.236,5.236,0,0,1,346.881-22.07Zm2.683-9.426v9.426A2.432,2.432,0,0,0,350-20.64h0a2.514,2.514,0,0,0,1.117.929h0a2.621,2.621,0,0,0,1,.188h0a2.4,2.4,0,0,0,1.43-.438h0a2.513,2.513,0,0,0,.929-1.117h0a2.593,2.593,0,0,0,.188-.992h0V-31.5a2.294,2.294,0,0,0-.438-1.4h0a2.449,2.449,0,0,0-1.106-.929h0a2.7,2.7,0,0,0-1-.209h0a2.851,2.851,0,0,0-1.44.418h0a2.432,2.432,0,0,0-.919,1.138h0a1.755,1.755,0,0,0-.146.48,2.662,2.662,0,0,0-.052.5Zm10.564,13.34h0V-35.348a1.284,1.284,0,0,1,.4-.939h0a1.3,1.3,0,0,1,.96-.386h3.7a5.5,5.5,0,0,1,3.142.95h0a5.79,5.79,0,0,1,2.067,2.474h0a7.138,7.138,0,0,1,.324,1.086,5.33,5.33,0,0,1,.115,1.106h0a5.281,5.281,0,0,1-.981,3.142h0a4.828,4.828,0,0,1-.418.574,4.086,4.086,0,0,1-.491.491h0a.569.569,0,0,0-.157.324.432.432,0,0,0,.084.324h0a4.789,4.789,0,0,1,.929,2.2h0q.073.491.167,1.148t.2,1.388q.094.72.188,1.378t.167,1.106h0l.083.616q.01.115.01.209h0a1.368,1.368,0,0,1-.261.793h0a1.3,1.3,0,0,1-.887.522h0a.4.4,0,0,1-.188.031h0a1.289,1.289,0,0,1-.866-.324,1.407,1.407,0,0,1-.47-.846h0q0-.021-.094-.689t-.209-1.576q-.125-.908-.261-1.848t-.219-1.534h0a2.1,2.1,0,0,0-.7-1.263h0a2.013,2.013,0,0,0-1.367-.522H363.3a.48.48,0,0,0-.355.136.459.459,0,0,0-.136.355h0v6.764a1.308,1.308,0,0,1-.4.96,1.266,1.266,0,0,1-.929.386h0a1.3,1.3,0,0,1-.96-.386A1.308,1.308,0,0,1,360.127-18.156Zm2.683-15.376v4.969a.442.442,0,0,0,.136.324.48.48,0,0,0,.355.136h1.879a2.811,2.811,0,0,0,1.639-.491h0a2.723,2.723,0,0,0,1.086-1.294h0a3.557,3.557,0,0,0,.23-1.169h0a3.023,3.023,0,0,0-.491-1.649h0a3.074,3.074,0,0,0-1.294-1.065h0a3,3,0,0,0-1.169-.24H363.3a.48.48,0,0,0-.355.136.467.467,0,0,0-.136.344Zm10.334,15.4h0V-35.348a1.25,1.25,0,0,1,.438-.981h0a1.319,1.319,0,0,1,.887-.344h.042a1.267,1.267,0,0,1,.929.386,1.284,1.284,0,0,1,.4.939h0V-28.8a.861.861,0,0,0,.125.428.755.755,0,0,0,.365.324h0a.782.782,0,0,0,.585.042.886.886,0,0,0,.449-.324h0q.052-.084.3-.626t.616-1.336q.344-.783.762-1.681t.772-1.712q.365-.814.626-1.409t.334-.772h0v-.021a1.151,1.151,0,0,1,.5-.585,1.386,1.386,0,0,1,.72-.2h0a1.359,1.359,0,0,1,.564.1h0a1.3,1.3,0,0,1,.71.752h0a2.154,2.154,0,0,1,.094.459h0a1.3,1.3,0,0,1-.146.585h0l-.24.511h0q-.23.522-.574,1.284t-.762,1.681q-.4.919-.783,1.733t-.658,1.441q-.271.616-.355.783h0a1.579,1.579,0,0,1-.146.313q-.094.146-.2.282h0q.1.136.2.282a1.578,1.578,0,0,1,.146.313h0q.083.157.355.793t.658,1.441q.386.814.783,1.733T382.4-20.5q.344.762.574,1.284h0l.24.511a1.473,1.473,0,0,1,.125.585h0a1.317,1.317,0,0,1-.073.438h0a1.42,1.42,0,0,1-.71.772h0a1.359,1.359,0,0,1-.564.1h0a1.334,1.334,0,0,1-.72-.209,1.156,1.156,0,0,1-.5-.574h0v-.021q-.083-.167-.334-.762t-.626-1.42q-.365-.814-.772-1.712t-.762-1.681q-.355-.793-.616-1.336t-.3-.626h0a.947.947,0,0,0-.449-.334.755.755,0,0,0-.585.052h0a.755.755,0,0,0-.365.324.861.861,0,0,0-.125.428h0v6.545a1.284,1.284,0,0,1-.4.939,1.267,1.267,0,0,1-.929.386h0a1.374,1.374,0,0,1-.929-.355h0A1.239,1.239,0,0,1,373.144-18.135Z" transform="translate(-2.747 36.809)" fill="#007a50"/>
    </g>
    <g id="logo-logo" transform="translate(904.844 378.833)">
      <g id="Group_7334" data-name="Group 7334" transform="translate(0 0)">
        <g id="Group_7327" data-name="Group 7327" transform="translate(31.85 25.167)">
          <path id="Path_654" data-name="Path 654" d="M903.932-1075.4l-10.273,10.272a6.134,6.134,0,0,1-8.676,0h0a6.134,6.134,0,0,1,0-8.676l10.243-10.244a10.655,10.655,0,0,0-14.473.549l-32.306,32.3,15.062,15.062a10.664,10.664,0,0,0,15.081,0l32.306-32.3-6.963-6.963" transform="translate(-848.447 1086.614)" fill="#ee161f"/>
        </g>
        <g id="Group_7328" data-name="Group 7328" transform="translate(0 1.106)">
          <path id="Path_655" data-name="Path 655" d="M660.91-1192.862l-31.851-31.851c7.757.772,11.237,2.512,16.069,5.689.617-13.726,7.541-26.747,15.73-33.323-9.118,17.174-8.343,43.907.051,59.485" transform="translate(-629.059 1252.347)" fill="#ee161f"/>
        </g>
        <g id="Group_7329" data-name="Group 7329" transform="translate(29.835 18.119)">
          <path id="Path_656" data-name="Path 656" d="M834.561-1135.163a29.536,29.536,0,0,0,4.916,4.161c.866.6,1.744,1.169,2.631,1.7a26.487,26.487,0,0,0,2.665,1.4l1.925.856-1.371,1.816a33.994,33.994,0,0,0-5.464,12.452,58.309,58.309,0,0,0-1.252,6.955q-.219,1.771-.294,3.569a22.816,22.816,0,0,0,.09,3.642,13.411,13.411,0,0,1-1.378-3.5,24.781,24.781,0,0,1-.643-3.725,31.961,31.961,0,0,1,.18-7.567,30.723,30.723,0,0,1,1.987-7.4,23.2,23.2,0,0,1,4.11-6.654l.555,2.671a18.286,18.286,0,0,1-2.887-2.042,22.129,22.129,0,0,1-2.443-2.418,18.755,18.755,0,0,1-2.015-2.768,11.411,11.411,0,0,1-1.311-3.14" transform="translate(-834.561 1135.163)" fill="#ee161f"/>
        </g>
        <g id="Group_7330" data-name="Group 7330" transform="translate(34.216 7.51)">
          <path id="Path_657" data-name="Path 657" d="M864.74-1196.384a16.616,16.616,0,0,1,.589-2.571,21.959,21.959,0,0,1,.924-2.485c.348-.812.738-1.6,1.138-2.377s.825-1.539,1.26-2.29l1.235-2.127,1.18,2.394c.59,1.2,1.246,2.365,1.943,3.506s1.445,2.255,2.234,3.338,1.61,2.141,2.463,3.171,1.752,2.017,2.674,2.968l1.219,1.259-1.147,1.294a49.061,49.061,0,0,0-4.362,5.835,62.733,62.733,0,0,0-3.638,6.437,53.176,53.176,0,0,0-2.8,6.889,44.215,44.215,0,0,0-1.7,7.369,24.162,24.162,0,0,1-.271-3.86,28.075,28.075,0,0,1,.274-3.891,38.274,38.274,0,0,1,1.887-7.6,46.079,46.079,0,0,1,3.283-7.135c.648-1.141,1.338-2.263,2.094-3.346a33.26,33.26,0,0,1,2.447-3.172l.073,2.552a37.725,37.725,0,0,1-2.911-3.244,41.133,41.133,0,0,1-2.534-3.521,38.21,38.21,0,0,1-2.133-3.782,31.149,31.149,0,0,1-1.654-4.031l2.415.268c-1.076,1.325-2.173,2.624-3.219,3.958-.521.668-1.03,1.344-1.529,2.038s-.965,1.418-1.435,2.158" transform="translate(-864.74 1208.233)" fill="#ee161f"/>
        </g>
        <g id="Group_7331" data-name="Group 7331" transform="translate(41.526)">
          <path id="Path_658" data-name="Path 658" d="M918.333-1246.851q.456-1.486,1.034-2.927t1.26-2.85a31.19,31.19,0,0,1,3.328-5.374l1.531-1.962.833,2.533c.509,1.547,1.113,3.091,1.747,4.621s1.316,3.049,2.033,4.545,1.46,2.975,2.244,4.413a35.746,35.746,0,0,0,2.527,4.051l1.041,1.406-1.286,1.137c-1.968,1.741-3.908,3.7-5.777,5.67-1.867,1.984-3.69,4.015-5.422,6.119a70.013,70.013,0,0,0-4.863,6.554,25.167,25.167,0,0,0-3.461,7.406,14.7,14.7,0,0,1,.521-4.2,26.143,26.143,0,0,1,1.4-4.026,48.2,48.2,0,0,1,4.128-7.422,73.607,73.607,0,0,1,5.113-6.744c.914-1.074,1.851-2.131,2.831-3.154s1.973-2.033,3.071-3.007l-.245,2.543a32.071,32.071,0,0,1-2.856-4.57c-.822-1.548-1.545-3.128-2.225-4.723s-1.285-3.217-1.822-4.868a45.405,45.405,0,0,1-1.373-5.059l2.365.573a48.712,48.712,0,0,0-3.961,4.438c-.628.79-1.245,1.6-1.866,2.409l-1.854,2.467" transform="translate(-915.095 1259.964)" fill="#ee161f"/>
        </g>
        <g id="Group_7332" data-name="Group 7332" transform="translate(69.438 38.223)">
          <path id="Path_659" data-name="Path 659" d="M1114.845-992.934a3.747,3.747,0,0,1-3.748,3.747,3.748,3.748,0,0,1-3.748-3.747,3.748,3.748,0,0,1,3.748-3.747,3.747,3.747,0,0,1,3.748,3.747" transform="translate(-1107.349 996.681)" fill="#ee161f"/>
        </g>
        <g id="Group_7333" data-name="Group 7333" transform="translate(4.261 16.434)">
          <path id="Path_660" data-name="Path 660" d="M668.914-1141.515a5.251,5.251,0,0,1-5.252,5.252,5.253,5.253,0,0,1-5.252-5.252,5.253,5.253,0,0,1,5.252-5.252,5.251,5.251,0,0,1,5.252,5.252" transform="translate(-658.41 1146.767)" fill="#ee161f"/>
        </g>
      </g>
    </g>
  </g>
</svg>
