<svg id="auto_stories_black_24dp" xmlns="http://www.w3.org/2000/svg" width="42" height="42" viewBox="0 0 42 42" fill="#00b165">
  <path id="Path_639" data-name="Path 639" d="M0,0H42V42H0Z" fill="none"/>
  <path id="Path_640" data-name="Path 640" d="M33.727,1l-9.091,9.39V31.049L33.727,22.6ZM1,10.39V37.9a.994.994,0,0,0,.909.939c.182,0,.273-.094.455-.094A21.607,21.607,0,0,1,11,36.683c3.545,0,7.364.751,10,2.817V10.39c-2.636-2.066-6.455-2.817-10-2.817S3.636,8.324,1,10.39ZM41,35.744V10.39a12.252,12.252,0,0,0-3.636-1.878V33.866A20.5,20.5,0,0,0,31,32.927a21.368,21.368,0,0,0-10,2.817V39.5a21.368,21.368,0,0,1,10-2.817,18.016,18.016,0,0,1,8.636,1.972.8.8,0,0,0,.455.094A.994.994,0,0,0,41,37.81V35.744Z"/>
</svg>
