<svg xmlns="http://www.w3.org/2000/svg" width="111.328" height="99.12" viewBox="0 0 111.328 99.12">
  <g id="Group_7326" data-name="Group 7326" transform="translate(-32.29 -17.836)">
    <g id="text-logo-path" transform="translate(32.289 111.105)">
      <path id="Path_645" data-name="Path 645" d="M2.747-31.353h0v-5.029a.371.371,0,0,1,.119-.275h0a.371.371,0,0,1,.278-.113H4.225a1.608,1.608,0,0,1,.919.278h0a1.666,1.666,0,0,1,.6.724h0a2.087,2.087,0,0,1,.095.318,1.56,1.56,0,0,1,.034.324h0a1.545,1.545,0,0,1-.287.919h0a1.414,1.414,0,0,1-.122.168,1.341,1.341,0,0,1-.14.144h0a.158.158,0,0,0-.049.095.126.126,0,0,0,.024.095h0a1.4,1.4,0,0,1,.272.644h0q.024.144.049.336t.058.406q.027.211.055.4t.052.324h0l.021.18a.344.344,0,0,1,.006.061h0a.39.39,0,0,1-.079.232h0a.381.381,0,0,1-.26.153h0a.116.116,0,0,1-.055.009h0a.377.377,0,0,1-.253-.095.412.412,0,0,1-.137-.247h0s-.009-.071-.027-.2-.039-.282-.061-.461-.048-.357-.076-.54-.048-.331-.064-.449h0a.6.6,0,0,0-.2-.369h0a.589.589,0,0,0-.4-.153H3.675a.147.147,0,0,0-.1.04.134.134,0,0,0-.04.1h0v1.978a.383.383,0,0,1-.116.281.37.37,0,0,1-.272.113h0a.381.381,0,0,1-.281-.113A.383.383,0,0,1,2.747-31.353Zm.785-4.5V-34.4a.129.129,0,0,0,.04.095.147.147,0,0,0,.1.04h.55a.836.836,0,0,0,.482-.143h0a.82.82,0,0,0,.318-.379h0a1.089,1.089,0,0,0,.064-.342h0a.884.884,0,0,0-.143-.482h0a.875.875,0,0,0-.379-.311h0a.879.879,0,0,0-.342-.07h-.55a.147.147,0,0,0-.1.04.137.137,0,0,0-.04.1Zm3.059,4.5h0v-5.029a.381.381,0,0,1,.113-.275.374.374,0,0,1,.275-.113h0a.37.37,0,0,1,.272.113.381.381,0,0,1,.113.275h0v5.029a.388.388,0,0,1-.113.281.37.37,0,0,1-.272.113h0a.374.374,0,0,1-.275-.113A.388.388,0,0,1,6.591-31.353ZM7.95-32.5h0v-2.757a1.563,1.563,0,0,1,.064-.446,1.284,1.284,0,0,1,.2-.4h0a1.417,1.417,0,0,1,.675-.553h0a1.421,1.421,0,0,1,.589-.122h.009a1.467,1.467,0,0,1,.849.26h0a1.741,1.741,0,0,1,.327.3,1.342,1.342,0,0,1,.226.372h0a1.506,1.506,0,0,1,.122.6h0a.386.386,0,0,1-.116.278.371.371,0,0,1-.275.119h0a.371.371,0,0,1-.275-.119.391.391,0,0,1-.113-.278h0a.765.765,0,0,0-.128-.409h0a.839.839,0,0,0-.333-.272h0A.721.721,0,0,0,9.486-36h0a.787.787,0,0,0-.223.031.761.761,0,0,0-.2.092h0a.73.73,0,0,0-.272.333h0a.7.7,0,0,0-.064.287h0V-32.5a.779.779,0,0,0,.128.418h0a.839.839,0,0,0,.333.272h0a.719.719,0,0,0,.3.055h0a.688.688,0,0,0,.409-.128h0a.735.735,0,0,0,.272-.327h0a.734.734,0,0,0,.064-.29h0v-.47a.136.136,0,0,0-.04-.095.14.14,0,0,0-.1-.04H9.745a.376.376,0,0,1-.275-.116.381.381,0,0,1-.113-.281h0a.381.381,0,0,1,.113-.275.376.376,0,0,1,.275-.116h.873a.364.364,0,0,1,.278.122h0a.361.361,0,0,1,.113.269h0v1a1.479,1.479,0,0,1-.263.858h0a1.58,1.58,0,0,1-.669.553h0a1.531,1.531,0,0,1-.592.119h0a1.54,1.54,0,0,1-.861-.263h0a1.663,1.663,0,0,1-.324-.3,1.479,1.479,0,0,1-.229-.379h0A1.5,1.5,0,0,1,7.95-32.5Zm3.85,1.136h0v-5.029a.37.37,0,0,1,.113-.272.383.383,0,0,1,.281-.116h0a.376.376,0,0,1,.275.116.37.37,0,0,1,.113.272h0v1.978a.132.132,0,0,0,.043.1.125.125,0,0,0,.095.043h1.136a.136.136,0,0,0,.095-.04.14.14,0,0,0,.04-.1h0v-1.978a.366.366,0,0,1,.116-.272.366.366,0,0,1,.272-.116h0a.386.386,0,0,1,.284.116.366.366,0,0,1,.116.272h0v5.029a.376.376,0,0,1-.116.281.392.392,0,0,1-.284.113h0a.37.37,0,0,1-.272-.113.376.376,0,0,1-.116-.281h0v-1.985a.147.147,0,0,0-.04-.1.136.136,0,0,0-.095-.04H12.719a.129.129,0,0,0-.095.04.129.129,0,0,0-.043.1h0v1.985a.381.381,0,0,1-.113.281.381.381,0,0,1-.275.113h0a.388.388,0,0,1-.281-.113A.381.381,0,0,1,11.8-31.362ZM15.354-36.4h0a.381.381,0,0,1,.113-.275.381.381,0,0,1,.275-.113h2.534a.381.381,0,0,1,.275.113.381.381,0,0,1,.113.275h0a.37.37,0,0,1-.113.272.376.376,0,0,1-.275.116h-.733a.127.127,0,0,0-.1.04.147.147,0,0,0-.037.1h0v4.513a.371.371,0,0,1-.119.275.381.381,0,0,1-.278.119h0a.361.361,0,0,1-.272-.119.376.376,0,0,1-.116-.275h0v-4.513a.14.14,0,0,0-.04-.1.14.14,0,0,0-.1-.04h-.739a.376.376,0,0,1-.275-.116A.37.37,0,0,1,15.354-36.4Zm3.591,1.023h0a1.332,1.332,0,0,1,.064-.412,1.494,1.494,0,0,1,.174-.369h0a1.449,1.449,0,0,1,.617-.5h0a1.279,1.279,0,0,1,.543-.113h0a1.356,1.356,0,0,1,.782.235h0a1.479,1.479,0,0,1,.51.614h0a1.443,1.443,0,0,1,.1.547h0a.376.376,0,0,1-.116.275.366.366,0,0,1-.272.116h0a.376.376,0,0,1-.275-.116.376.376,0,0,1-.116-.275h0a.657.657,0,0,0-.1-.348h0a.663.663,0,0,0-.281-.223h0a.62.62,0,0,0-.235-.046H20.33a.567.567,0,0,0-.333.11h0a.585.585,0,0,0-.22.272h0a.572.572,0,0,0-.049.235h0a.619.619,0,0,0,.055.263h0a1.038,1.038,0,0,0,.168.3h0a2.033,2.033,0,0,0,.253.287q.159.156.4.363h0l.226.2a3.2,3.2,0,0,1,.244.232h0q.125.128.217.241t.168.226h0a1.529,1.529,0,0,1,.183.357h0a1.52,1.52,0,0,1,.113.559h0a1.337,1.337,0,0,1-.244.776h0a1.457,1.457,0,0,1-.614.507h0a1.377,1.377,0,0,1-.537.113h0a1.365,1.365,0,0,1-.788-.244h0a1.4,1.4,0,0,1-.507-.614h0a1.4,1.4,0,0,1-.1-.537h0a.386.386,0,0,1,.116-.284.376.376,0,0,1,.275-.116h0a.366.366,0,0,1,.272.116.386.386,0,0,1,.116.284h0a.644.644,0,0,0,.1.342h0a.691.691,0,0,0,.269.22h0a.683.683,0,0,0,.247.046h0a.607.607,0,0,0,.342-.1h0a.686.686,0,0,0,.22-.272h0a.675.675,0,0,0,.046-.244h0a.619.619,0,0,0-.055-.263h0a1.078,1.078,0,0,0-.159-.287h0a3.655,3.655,0,0,0-.256-.293,5.229,5.229,0,0,0-.4-.366h0l-.308-.272a3.326,3.326,0,0,1-.29-.3h0a2.176,2.176,0,0,1-.443-.675h0A1.557,1.557,0,0,1,18.944-35.374Zm5.27,4.027h0v-3.9a1.527,1.527,0,0,1,.067-.449,1.553,1.553,0,0,1,.2-.4h0a1.436,1.436,0,0,1,.675-.556h0a1.547,1.547,0,0,1,.6-.119h0a1.477,1.477,0,0,1,.855.26h0a1.435,1.435,0,0,1,.547.666h0a1.523,1.523,0,0,1,.128.6h0v3.9a.376.376,0,0,1-.116.275.388.388,0,0,1-.281.113h0a.381.381,0,0,1-.275-.113.381.381,0,0,1-.113-.275h0v-1.606a.137.137,0,0,0-.04-.1.135.135,0,0,0-.1-.043H25.145a.135.135,0,0,0-.1.043.137.137,0,0,0-.04.1h0v1.606a.376.376,0,0,1-.116.275.381.381,0,0,1-.281.113h0a.381.381,0,0,1-.275-.113A.376.376,0,0,1,24.214-31.347Zm.788-3.9v1.233a.117.117,0,0,0,.04.095.147.147,0,0,0,.1.037h1.206a.143.143,0,0,0,.1-.037.113.113,0,0,0,.043-.095h0v-1.233a.676.676,0,0,0-.128-.412h0a.763.763,0,0,0-.327-.272h0a.765.765,0,0,0-.29-.061h0a.823.823,0,0,0-.424.125h0a.716.716,0,0,0-.269.333h0a.379.379,0,0,0-.043.14.928.928,0,0,0-.012.147Zm3.062,3.9h0v-3.908a1.5,1.5,0,0,1,.067-.446,1.423,1.423,0,0,1,.2-.4h0A1.418,1.418,0,0,1,29-36.657h0a1.513,1.513,0,0,1,.6-.122h0a1.477,1.477,0,0,1,.855.26h0a1.458,1.458,0,0,1,.547.669h0a1.517,1.517,0,0,1,.128.6h0v3.908a.376.376,0,0,1-.116.275.381.381,0,0,1-.275.113h0a.391.391,0,0,1-.278-.113.371.371,0,0,1-.119-.275h0v-3.908a.671.671,0,0,0-.128-.409h0a.717.717,0,0,0-.324-.272h0A.782.782,0,0,0,29.6-36h0a.839.839,0,0,0-.424.122h0a.73.73,0,0,0-.272.333h0a.513.513,0,0,0-.043.14.968.968,0,0,0-.012.147h0v3.908a.381.381,0,0,1-.113.275.381.381,0,0,1-.281.113h0a.381.381,0,0,1-.275-.113A.376.376,0,0,1,28.064-31.347Zm3.89-.015h0v-5.029a.386.386,0,0,1,.116-.278h0a.365.365,0,0,1,.269-.11h.98a1.627,1.627,0,0,1,.919.278h0a1.758,1.758,0,0,1,.6.724h0a1.632,1.632,0,0,1,.128.644h0v2.516a1.61,1.61,0,0,1-.281.922h0a1.546,1.546,0,0,1-.73.592h0a1.575,1.575,0,0,1-.635.134h-.968a.391.391,0,0,1-.281-.119h0A.367.367,0,0,1,31.954-31.362Zm.785-4.5v3.969a.129.129,0,0,0,.04.095.135.135,0,0,0,.1.043h.437A.9.9,0,0,0,33.8-31.9h0a.9.9,0,0,0,.311-.382h0a.89.89,0,0,0,.067-.339h0v-2.516a.913.913,0,0,0-.15-.485h0a.84.84,0,0,0-.382-.311h0A.846.846,0,0,0,33.319-36h-.437a.147.147,0,0,0-.1.037.137.137,0,0,0-.04.1Zm4.824,4.506h0v-5.029a.376.376,0,0,1,.116-.275h0a.381.381,0,0,1,.281-.113H39.04a1.608,1.608,0,0,1,.919.278h0a1.666,1.666,0,0,1,.6.724h0a2.088,2.088,0,0,1,.095.318,1.56,1.56,0,0,1,.034.324h0a1.545,1.545,0,0,1-.287.919h0a1.415,1.415,0,0,1-.122.168,1.341,1.341,0,0,1-.14.144h0a.158.158,0,0,0-.049.095.126.126,0,0,0,.024.095h0a1.4,1.4,0,0,1,.272.644h0q.021.144.049.336t.058.406q.027.211.055.4t.052.324h0l.021.18a.344.344,0,0,1,.006.061h0a.39.39,0,0,1-.079.232h0a.381.381,0,0,1-.26.153h0a.116.116,0,0,1-.055.009h0a.377.377,0,0,1-.253-.095.412.412,0,0,1-.137-.247h0s-.009-.071-.027-.2-.039-.282-.061-.461-.048-.357-.076-.54-.048-.331-.064-.449h0a.6.6,0,0,0-.2-.369h0a.589.589,0,0,0-.4-.153h-.522a.14.14,0,0,0-.1.04.134.134,0,0,0-.04.1h0v1.978a.383.383,0,0,1-.116.281.37.37,0,0,1-.272.113h0a.381.381,0,0,1-.281-.113A.383.383,0,0,1,37.563-31.353Zm.785-4.5V-34.4a.129.129,0,0,0,.04.095.14.14,0,0,0,.1.04h.55a.836.836,0,0,0,.482-.143h0a.82.82,0,0,0,.318-.379h0a1.089,1.089,0,0,0,.064-.342h0a.884.884,0,0,0-.143-.482h0a.875.875,0,0,0-.379-.311h0a.879.879,0,0,0-.342-.07h-.55a.14.14,0,0,0-.1.04.136.136,0,0,0-.04.1ZM41.4-31.362h0v-5.029a.366.366,0,0,1,.116-.272.366.366,0,0,1,.272-.116h1.969a.376.376,0,0,1,.275.116.371.371,0,0,1,.113.272h0a.391.391,0,0,1-.113.278.376.376,0,0,1-.275.116H42.323a.143.143,0,0,0-.1.037.132.132,0,0,0-.043.1h0v1.453a.126.126,0,0,0,.043.1.143.143,0,0,0,.1.037h1.041a.381.381,0,0,1,.275.113.383.383,0,0,1,.116.281h0a.376.376,0,0,1-.116.275.371.371,0,0,1-.275.119H42.323a.143.143,0,0,0-.1.037.139.139,0,0,0-.043.107h0v1.447a.125.125,0,0,0,.043.095.132.132,0,0,0,.1.043h1.438a.376.376,0,0,1,.275.116.381.381,0,0,1,.113.275h0a.381.381,0,0,1-.113.281.381.381,0,0,1-.275.113H41.791a.37.37,0,0,1-.272-.113A.376.376,0,0,1,41.4-31.362Zm3.3-4.012h0a1.332,1.332,0,0,1,.064-.412,1.582,1.582,0,0,1,.177-.369h0a1.429,1.429,0,0,1,.614-.5h0a1.279,1.279,0,0,1,.543-.113h0a1.361,1.361,0,0,1,.785.235h0a1.457,1.457,0,0,1,.507.614h0a1.443,1.443,0,0,1,.1.547h0a.381.381,0,0,1-.113.275.376.376,0,0,1-.275.116h0a.376.376,0,0,1-.275-.116.376.376,0,0,1-.116-.275h0a.657.657,0,0,0-.1-.348h0a.667.667,0,0,0-.278-.223h0a.628.628,0,0,0-.238-.046H46.09a.567.567,0,0,0-.333.11h0a.611.611,0,0,0-.22.272h0a.6.6,0,0,0-.046.235h0a.65.65,0,0,0,.052.263h0a1.146,1.146,0,0,0,.168.3h0a2.216,2.216,0,0,0,.256.287q.159.156.394.363h0q.107.089.226.2a3.2,3.2,0,0,1,.244.232h0a3.161,3.161,0,0,1,.22.241q.089.116.168.226h0a1.434,1.434,0,0,1,.18.357h0a1.52,1.52,0,0,1,.113.559h0a1.337,1.337,0,0,1-.244.776h0a1.461,1.461,0,0,1-.611.507h0a1.4,1.4,0,0,1-.54.113h0a1.352,1.352,0,0,1-.785-.244h0a1.393,1.393,0,0,1-.51-.614h0a1.4,1.4,0,0,1-.1-.537h0a.386.386,0,0,1,.116-.284.376.376,0,0,1,.275-.116h0a.376.376,0,0,1,.275.116.392.392,0,0,1,.113.284h0a.644.644,0,0,0,.1.342h0a.692.692,0,0,0,.269.22h0a.683.683,0,0,0,.247.046h0a.607.607,0,0,0,.342-.1h0a.686.686,0,0,0,.22-.272h0a.638.638,0,0,0,.049-.244h0a.619.619,0,0,0-.055-.263h0a1.078,1.078,0,0,0-.159-.287h0q-.107-.134-.26-.293a5.229,5.229,0,0,0-.4-.366h0q-.153-.134-.305-.272a3.1,3.1,0,0,1-.293-.3h0a2.127,2.127,0,0,1-.44-.675h0A1.521,1.521,0,0,1,44.7-35.374Zm3.539,4.021h0v-5.029a.372.372,0,0,1,.107-.275h0a.381.381,0,0,1,.281-.113h.888a1.845,1.845,0,0,1,1.035.311h0a1.841,1.841,0,0,1,.666.809h0a1.85,1.85,0,0,1,.143.711h0a1.824,1.824,0,0,1-.318,1.032h0a1.784,1.784,0,0,1-.812.659h0a1.682,1.682,0,0,1-.714.15h-.357a.129.129,0,0,0-.095.04h0a.134.134,0,0,0-.049.1h0v1.606a.383.383,0,0,1-.116.281.37.37,0,0,1-.272.113h0a.381.381,0,0,1-.275-.113A.388.388,0,0,1,48.243-31.353Zm.776-4.5v1.838a.126.126,0,0,0,.04.092.147.147,0,0,0,.1.04h.357a1.062,1.062,0,0,0,.6-.183h0a1,1,0,0,0,.382-.461h0a1.1,1.1,0,0,0,.079-.412h0a1.046,1.046,0,0,0-.18-.589h0a1.016,1.016,0,0,0-.464-.379h0a.947.947,0,0,0-.394-.085h-.376a.147.147,0,0,0-.1.04.136.136,0,0,0-.04.1ZM52-32.5h0v-2.757a1.5,1.5,0,0,1,.067-.446,1.541,1.541,0,0,1,.2-.4h0a1.417,1.417,0,0,1,.675-.553h0a1.513,1.513,0,0,1,.6-.122h0a1.477,1.477,0,0,1,.855.26h0a1.433,1.433,0,0,1,.547.669h0a1.517,1.517,0,0,1,.128.6h0V-32.5a1.525,1.525,0,0,1-.263.858h0a1.788,1.788,0,0,1-.3.324,1.373,1.373,0,0,1-.379.229h0a1.531,1.531,0,0,1-.592.119h0a1.525,1.525,0,0,1-.858-.263h0a1.788,1.788,0,0,1-.324-.3,1.5,1.5,0,0,1-.235-.379h0A1.532,1.532,0,0,1,52-32.5Zm.788-2.757V-32.5a.712.712,0,0,0,.128.418h0a.716.716,0,0,0,.324.272h0a.79.79,0,0,0,.3.055h0a.711.711,0,0,0,.418-.128h0a.735.735,0,0,0,.272-.327h0a.759.759,0,0,0,.055-.29h0v-2.757a.671.671,0,0,0-.128-.409h0a.735.735,0,0,0-.327-.272h0a.765.765,0,0,0-.29-.061h0a.839.839,0,0,0-.424.122h0a.718.718,0,0,0-.266.333h0a.6.6,0,0,0-.046.14.968.968,0,0,0-.012.147Zm3.032,3.908h0v-3.908a1.5,1.5,0,0,1,.067-.446,1.423,1.423,0,0,1,.2-.4h0a1.417,1.417,0,0,1,.675-.553h0a1.506,1.506,0,0,1,.6-.122h0a1.491,1.491,0,0,1,.858.26h0a1.458,1.458,0,0,1,.547.669h0a1.517,1.517,0,0,1,.128.6h0v3.908a.376.376,0,0,1-.116.275.381.381,0,0,1-.275.113h0a.391.391,0,0,1-.278-.113.371.371,0,0,1-.119-.275h0v-3.908a.671.671,0,0,0-.128-.409h0a.716.716,0,0,0-.324-.272h0A.788.788,0,0,0,57.35-36h0a.834.834,0,0,0-.421.122h0a.73.73,0,0,0-.272.333h0a.513.513,0,0,0-.043.14.968.968,0,0,0-.012.147h0v3.908a.381.381,0,0,1-.113.275.388.388,0,0,1-.281.113h0a.381.381,0,0,1-.275-.113A.376.376,0,0,1,55.818-31.347Zm3.8-4.027h0a1.332,1.332,0,0,1,.064-.412,1.582,1.582,0,0,1,.177-.369h0a1.449,1.449,0,0,1,.617-.5h0a1.272,1.272,0,0,1,.54-.113h0a1.361,1.361,0,0,1,.785.235h0a1.457,1.457,0,0,1,.507.614h0a1.443,1.443,0,0,1,.1.547h0a.381.381,0,0,1-.113.275.376.376,0,0,1-.275.116h0a.376.376,0,0,1-.275-.116.376.376,0,0,1-.116-.275h0a.657.657,0,0,0-.1-.348h0a.668.668,0,0,0-.278-.223h0a.628.628,0,0,0-.238-.046h-.009a.571.571,0,0,0-.336.11h0a.611.611,0,0,0-.22.272h0a.605.605,0,0,0-.046.235h0a.619.619,0,0,0,.055.263h0a1.071,1.071,0,0,0,.165.3h0a2.216,2.216,0,0,0,.256.287q.159.156.394.363h0q.107.089.229.2a2.842,2.842,0,0,1,.241.232h0a3.165,3.165,0,0,1,.22.241q.092.116.168.226h0a1.529,1.529,0,0,1,.183.357h0a1.557,1.557,0,0,1,.11.559h0a1.337,1.337,0,0,1-.244.776h0a1.436,1.436,0,0,1-.611.507h0a1.4,1.4,0,0,1-.54.113h0a1.352,1.352,0,0,1-.785-.244h0a1.393,1.393,0,0,1-.51-.614h0a1.4,1.4,0,0,1-.1-.537h0a.386.386,0,0,1,.116-.284.376.376,0,0,1,.275-.116h0a.376.376,0,0,1,.275.116.392.392,0,0,1,.113.284h0a.63.63,0,0,0,.107.342h0a.669.669,0,0,0,.266.22h0a.7.7,0,0,0,.247.046h0a.6.6,0,0,0,.342-.1h0a.653.653,0,0,0,.22-.272h0a.638.638,0,0,0,.049-.244h0a.619.619,0,0,0-.055-.263h0a1.078,1.078,0,0,0-.159-.287h0a3.367,3.367,0,0,0-.26-.293,5.227,5.227,0,0,0-.4-.366h0l-.305-.272a2.848,2.848,0,0,1-.29-.3h0a2.105,2.105,0,0,1-.443-.675h0A1.52,1.52,0,0,1,59.619-35.374Zm3.539,4.021h0v-5.029a.376.376,0,0,1,.116-.275.37.37,0,0,1,.272-.113h0a.381.381,0,0,1,.275.113.381.381,0,0,1,.113.275h0v5.029a.388.388,0,0,1-.113.281.381.381,0,0,1-.275.113h0a.37.37,0,0,1-.272-.113A.383.383,0,0,1,63.157-31.353Zm1.609,0h0v-5.029a.376.376,0,0,1,.116-.275h0a.378.378,0,0,1,.278-.113h1.084a1.636,1.636,0,0,1,.919.278h0a1.735,1.735,0,0,1,.6.724h0a1.625,1.625,0,0,1,.128.641h0a1.6,1.6,0,0,1-.278.919h0a1.193,1.193,0,0,1-.092.122q-.052.061-.107.119h0a.144.144,0,0,0-.043.1.132.132,0,0,0,.043.1h0a1.55,1.55,0,0,1,.348.513h0a1.632,1.632,0,0,1,.128.644h0a1.622,1.622,0,0,1-.278.922h0a1.538,1.538,0,0,1-.733.6h0a1.582,1.582,0,0,1-.632.134H65.16a.35.35,0,0,1-.278-.119h0A.373.373,0,0,1,64.766-31.353Zm.782-1.978v1.45a.125.125,0,0,0,.043.095.137.137,0,0,0,.1.04h.553a.879.879,0,0,0,.479-.143h0a.875.875,0,0,0,.311-.379h0a1.01,1.01,0,0,0,.073-.342h0a.86.86,0,0,0-.153-.485h0a.838.838,0,0,0-.379-.308h0a.814.814,0,0,0-.333-.07h-.553a.137.137,0,0,0-.1.04.129.129,0,0,0-.043.1Zm0-2.519V-34.4a.122.122,0,0,0,.043.1.143.143,0,0,0,.1.037h.553a.879.879,0,0,0,.479-.143h0a.875.875,0,0,0,.311-.379h0a1.01,1.01,0,0,0,.073-.342h0a.886.886,0,0,0-.153-.482h0a.8.8,0,0,0-.379-.311h0a.814.814,0,0,0-.333-.07h-.553a.137.137,0,0,0-.1.04.132.132,0,0,0-.043.1Zm3.044,4.5h0v-5.029a.381.381,0,0,1,.113-.275.381.381,0,0,1,.275-.113h0a.37.37,0,0,1,.272.113.376.376,0,0,1,.116.275h0v5.029a.383.383,0,0,1-.116.281.37.37,0,0,1-.272.113h0a.381.381,0,0,1-.275-.113A.388.388,0,0,1,68.592-31.353Zm1.572,0h0v-5.029a.367.367,0,0,1,.122-.275.391.391,0,0,1,.278-.113h0a.381.381,0,0,1,.275.113.381.381,0,0,1,.113.275h0v4.5a.129.129,0,0,0,.04.095.147.147,0,0,0,.1.04h.986a.366.366,0,0,1,.272.116.379.379,0,0,1,.116.278h0a.383.383,0,0,1-.116.281.37.37,0,0,1-.272.113H70.564a.391.391,0,0,1-.278-.113A.373.373,0,0,1,70.164-31.353Zm2.8,0h0v-5.029a.376.376,0,0,1,.116-.275.37.37,0,0,1,.272-.113h0a.381.381,0,0,1,.275.113.381.381,0,0,1,.113.275h0v5.029a.388.388,0,0,1-.113.281.381.381,0,0,1-.275.113h0a.37.37,0,0,1-.272-.113A.383.383,0,0,1,72.967-31.353ZM74.3-36.4h0a.376.376,0,0,1,.116-.275.37.37,0,0,1,.272-.113h2.537a.37.37,0,0,1,.272.113.381.381,0,0,1,.113.275h0a.37.37,0,0,1-.113.272.366.366,0,0,1-.272.116H76.5a.13.13,0,0,0-.1.04.147.147,0,0,0-.037.1h0v4.513a.371.371,0,0,1-.119.275.371.371,0,0,1-.275.119h0a.371.371,0,0,1-.275-.119.381.381,0,0,1-.113-.275h0v-4.513a.135.135,0,0,0-.043-.1.136.136,0,0,0-.1-.04h-.742a.366.366,0,0,1-.272-.116A.366.366,0,0,1,74.3-36.4Zm3.923,5.044h0v-5.029a.381.381,0,0,1,.113-.275.381.381,0,0,1,.275-.113h0a.37.37,0,0,1,.272.113.376.376,0,0,1,.116.275h0v5.029a.383.383,0,0,1-.116.281.37.37,0,0,1-.272.113h0a.381.381,0,0,1-.275-.113A.388.388,0,0,1,78.228-31.353Zm1.609-.009h0v-5.029a.371.371,0,0,1,.113-.272.376.376,0,0,1,.275-.116h1.969a.366.366,0,0,1,.272.116.366.366,0,0,1,.116.272h0a.386.386,0,0,1-.116.278.366.366,0,0,1-.272.116H80.756a.147.147,0,0,0-.1.037.137.137,0,0,0-.04.1h0v1.453a.13.13,0,0,0,.04.1.147.147,0,0,0,.1.037h1.038a.381.381,0,0,1,.275.113.383.383,0,0,1,.116.281h0a.376.376,0,0,1-.116.275.371.371,0,0,1-.275.119H80.756a.147.147,0,0,0-.1.037.144.144,0,0,0-.04.107h0v1.447a.129.129,0,0,0,.04.095.135.135,0,0,0,.1.043h1.438a.366.366,0,0,1,.272.116.376.376,0,0,1,.116.275h0a.376.376,0,0,1-.116.281.37.37,0,0,1-.272.113H80.225a.381.381,0,0,1-.275-.113A.381.381,0,0,1,79.837-31.362Zm3.3-4.012h0a1.333,1.333,0,0,1,.064-.412,1.582,1.582,0,0,1,.177-.369h0a1.449,1.449,0,0,1,.617-.5h0a1.279,1.279,0,0,1,.543-.113h0a1.356,1.356,0,0,1,.782.235h0a1.457,1.457,0,0,1,.507.614h0a1.407,1.407,0,0,1,.107.547h0a.376.376,0,0,1-.116.275.366.366,0,0,1-.272.116h0a.376.376,0,0,1-.275-.116.371.371,0,0,1-.119-.275h0a.657.657,0,0,0-.1-.348h0a.643.643,0,0,0-.278-.223h0a.62.62,0,0,0-.235-.046h-.012a.558.558,0,0,0-.333.11h0a.6.6,0,0,0-.223.272h0a.6.6,0,0,0-.046.235h0a.619.619,0,0,0,.055.263h0a1.071,1.071,0,0,0,.165.3h0a2.216,2.216,0,0,0,.256.287q.159.156.4.363h0l.226.2a2.841,2.841,0,0,1,.241.232h0a3.164,3.164,0,0,1,.22.241q.092.116.168.226h0a1.528,1.528,0,0,1,.183.357h0a1.52,1.52,0,0,1,.113.559h0a1.337,1.337,0,0,1-.244.776h0a1.457,1.457,0,0,1-.614.507h0a1.392,1.392,0,0,1-.537.113h0a1.365,1.365,0,0,1-.788-.244h0a1.373,1.373,0,0,1-.507-.614h0a1.369,1.369,0,0,1-.107-.537h0a.386.386,0,0,1,.116-.284.386.386,0,0,1,.278-.116h0a.366.366,0,0,1,.272.116.386.386,0,0,1,.116.284h0a.643.643,0,0,0,.1.342h0a.7.7,0,0,0,.266.22h0a.708.708,0,0,0,.25.046h0a.593.593,0,0,0,.339-.1h0a.677.677,0,0,0,.223-.272h0a.675.675,0,0,0,.046-.244h0a.619.619,0,0,0-.055-.263h0a1.078,1.078,0,0,0-.159-.287h0a3.65,3.65,0,0,0-.256-.293,4.971,4.971,0,0,0-.4-.366h0l-.305-.272a2.848,2.848,0,0,1-.29-.3h0a2.1,2.1,0,0,1-.443-.675h0A1.52,1.52,0,0,1,83.134-35.374Zm5.273,4.027h0v-3.9a1.527,1.527,0,0,1,.067-.449,1.432,1.432,0,0,1,.2-.4h0a1.436,1.436,0,0,1,.675-.556h0a1.547,1.547,0,0,1,.6-.119h0a1.477,1.477,0,0,1,.855.26h0a1.435,1.435,0,0,1,.547.666h0a1.523,1.523,0,0,1,.128.6h0v3.9a.376.376,0,0,1-.116.275.392.392,0,0,1-.284.113h0a.37.37,0,0,1-.272-.113.376.376,0,0,1-.116-.275h0v-1.606a.143.143,0,0,0-.037-.1.139.139,0,0,0-.107-.043h-1.2a.135.135,0,0,0-.1.043.136.136,0,0,0-.04.1h0v1.606a.376.376,0,0,1-.116.275.381.381,0,0,1-.281.113h0a.381.381,0,0,1-.275-.113A.376.376,0,0,1,88.407-31.347Zm.788-3.9v1.233a.117.117,0,0,0,.04.095.147.147,0,0,0,.1.037h1.2a.147.147,0,0,0,.1-.037.117.117,0,0,0,.04-.095h0v-1.233a.676.676,0,0,0-.128-.412h0a.742.742,0,0,0-.324-.272h0a.781.781,0,0,0-.29-.061h0a.824.824,0,0,0-.424.125h0a.734.734,0,0,0-.272.333h0a.474.474,0,0,0-.043.14,1.235,1.235,0,0,0-.009.147ZM92.043-36.4h0a.381.381,0,0,1,.113-.275.381.381,0,0,1,.275-.113h2.534a.37.37,0,0,1,.272.113.376.376,0,0,1,.116.275h0a.366.366,0,0,1-.116.272.366.366,0,0,1-.272.116h-.733a.127.127,0,0,0-.1.04.147.147,0,0,0-.037.1h0v4.513a.371.371,0,0,1-.119.275.381.381,0,0,1-.278.119h0a.361.361,0,0,1-.272-.119.376.376,0,0,1-.116-.275h0v-4.513a.14.14,0,0,0-.04-.1.147.147,0,0,0-.1-.04h-.739a.376.376,0,0,1-.275-.116A.37.37,0,0,1,92.043-36.4Zm5.487.021-.006-.006v-.024h0a.4.4,0,0,1,.089-.25h0a.381.381,0,0,1,.25-.153h.061a.377.377,0,0,1,.253.095.353.353,0,0,1,.125.238h0v.009a.13.13,0,0,1,.006.046.788.788,0,0,0,.018.122h0l.052.44q.04.287.086.647t.1.769h0q.137,1.038.214,1.682t.1.849h0q.009.037.012.058a.249.249,0,0,1,0,.031h0a.053.053,0,0,0,.049.061h0a.107.107,0,0,0,.128-.006h0a.123.123,0,0,0,.037-.064h0l.669-3.612a.347.347,0,0,1,.128-.229.38.38,0,0,1,.25-.089h0a.38.38,0,0,1,.25.089.4.4,0,0,1,.14.229h0l.659,3.606a.177.177,0,0,0,.04.07h0a.119.119,0,0,0,.07.021h0a.1.1,0,0,0,.058-.015h0a.187.187,0,0,0,.037-.021h0a.138.138,0,0,0,.015-.049h0v-.058l.079-.592q.04-.278.079-.617t.085-.708h0q.049-.363.1-.739t.092-.708q.046-.333.076-.6t.055-.424h0l.021-.189a.356.356,0,0,1,.128-.247.4.4,0,0,1,.263-.095h.049a.364.364,0,0,1,.263.153h0a.36.36,0,0,1,.082.223h0a.239.239,0,0,1-.006.052h0a.005.005,0,0,1-.006.006h0q0,.018-.009.092t-.034.293q-.027.214-.079.6t-.131,1.038h0q-.134,1.063-.214,1.695t-.11.846h0a.2.2,0,0,1-.006.058.2.2,0,0,0,0,.034h0a.887.887,0,0,1-.113.311h0a.657.657,0,0,1-.2.241h0a.866.866,0,0,1-.574.2h0a.862.862,0,0,1-.571-.2h0a.949.949,0,0,1-.311-.531h0l-.2-1.075q0-.07-.082-.07h0q-.061,0-.076.07h0l-.2,1.075a.906.906,0,0,1-.311.531h0a.866.866,0,0,1-.574.2h0a.828.828,0,0,1-.44-.119h0a.813.813,0,0,1-.327-.327h0a.888.888,0,0,1-.113-.311h0a.2.2,0,0,0,0-.034.391.391,0,0,1,0-.058h0l-.024-.174q-.015-.113-.037-.256t-.037-.311h0q-.046-.333-.1-.742t-.107-.843h0q-.089-.705-.144-1.136t-.089-.669q-.034-.238-.04-.324t-.009-.113ZM103.4-32.5h0v-2.757a1.5,1.5,0,0,1,.067-.446,1.423,1.423,0,0,1,.2-.4h0a1.418,1.418,0,0,1,.675-.553h0a1.506,1.506,0,0,1,.6-.122h0a1.482,1.482,0,0,1,.858.26h0a1.458,1.458,0,0,1,.547.669h0a1.517,1.517,0,0,1,.128.6h0V-32.5a1.525,1.525,0,0,1-.263.858h0a1.734,1.734,0,0,1-.3.324,1.387,1.387,0,0,1-.376.229h0a1.539,1.539,0,0,1-.6.119h0a1.511,1.511,0,0,1-.855-.263h0a1.742,1.742,0,0,1-.327-.3,1.434,1.434,0,0,1-.232-.379h0A1.532,1.532,0,0,1,103.4-32.5Zm.785-2.757V-32.5a.712.712,0,0,0,.128.418h0a.735.735,0,0,0,.327.272h0a.767.767,0,0,0,.293.055h0a.7.7,0,0,0,.418-.128h0a.735.735,0,0,0,.272-.327h0a.759.759,0,0,0,.055-.29h0v-2.757a.671.671,0,0,0-.128-.409h0a.716.716,0,0,0-.324-.272h0a.788.788,0,0,0-.293-.061h0a.834.834,0,0,0-.421.122h0a.711.711,0,0,0-.269.333h0a.513.513,0,0,0-.043.14.779.779,0,0,0-.015.147Zm3.09,3.9h0v-5.029a.376.376,0,0,1,.116-.275h0a.381.381,0,0,1,.281-.113h1.081a1.608,1.608,0,0,1,.919.278h0a1.693,1.693,0,0,1,.6.724h0a2.089,2.089,0,0,1,.095.318,1.56,1.56,0,0,1,.034.324h0a1.545,1.545,0,0,1-.287.919h0a1.412,1.412,0,0,1-.122.168,1.194,1.194,0,0,1-.143.144h0a.166.166,0,0,0-.046.095.126.126,0,0,0,.024.095h0a1.4,1.4,0,0,1,.272.644h0q.021.144.049.336t.058.406q.028.211.055.4t.049.324h0l.024.18q0,.034,0,.061h0a.4.4,0,0,1-.076.232h0a.381.381,0,0,1-.26.153h0a.116.116,0,0,1-.055.009h0a.377.377,0,0,1-.253-.095.412.412,0,0,1-.137-.247h0s-.009-.071-.027-.2-.039-.282-.061-.461-.05-.357-.076-.54-.048-.331-.064-.449h0a.615.615,0,0,0-.2-.369h0a.589.589,0,0,0-.4-.153h-.522a.14.14,0,0,0-.1.04.134.134,0,0,0-.04.1h0v1.978a.383.383,0,0,1-.116.281.371.371,0,0,1-.272.113h0a.381.381,0,0,1-.281-.113A.383.383,0,0,1,107.279-31.353Zm.785-4.5V-34.4a.129.129,0,0,0,.04.095.14.14,0,0,0,.1.04h.55a.822.822,0,0,0,.479-.143h0a.8.8,0,0,0,.318-.379h0a1.041,1.041,0,0,0,.067-.342h0a.884.884,0,0,0-.143-.482h0a.9.9,0,0,0-.379-.311h0a.879.879,0,0,0-.342-.07h-.55a.14.14,0,0,0-.1.04.136.136,0,0,0-.04.1Zm3.023,4.5h0v-5.035a.366.366,0,0,1,.128-.287h0a.386.386,0,0,1,.26-.1h.012a.37.37,0,0,1,.272.113.376.376,0,0,1,.116.275h0v1.914a.252.252,0,0,0,.037.125.221.221,0,0,0,.107.095h0a.229.229,0,0,0,.171.012.259.259,0,0,0,.131-.095h0q.015-.024.089-.183t.18-.391q.1-.229.223-.492l.226-.5q.107-.238.183-.412t.1-.226h0v-.006a.337.337,0,0,1,.147-.171.406.406,0,0,1,.211-.058h0a.4.4,0,0,1,.165.031h0a.38.38,0,0,1,.208.22h0a.63.63,0,0,1,.027.134h0a.38.38,0,0,1-.043.171h0l-.07.15h0q-.067.153-.168.376t-.223.492q-.116.269-.229.507t-.192.421q-.079.18-.1.229h0a.461.461,0,0,1-.043.092q-.027.043-.058.082h0q.031.04.058.082a.461.461,0,0,1,.043.092h0q.024.046.1.232t.192.421q.113.238.229.507t.223.492q.1.223.168.376h0l.07.15a.431.431,0,0,1,.037.171h0a.385.385,0,0,1-.021.128h0a.415.415,0,0,1-.208.226h0a.4.4,0,0,1-.165.031h0a.39.39,0,0,1-.211-.061.338.338,0,0,1-.147-.168h0v-.006q-.024-.049-.1-.223t-.183-.415l-.226-.5q-.122-.263-.223-.492t-.18-.391q-.073-.159-.089-.183h0a.277.277,0,0,0-.131-.1.221.221,0,0,0-.171.015h0a.221.221,0,0,0-.107.095.252.252,0,0,0-.037.125h0v1.914a.376.376,0,0,1-.116.275.37.37,0,0,1-.272.113h0a.4.4,0,0,1-.272-.1h0A.362.362,0,0,1,111.086-31.347Z" transform="translate(-2.747 36.81)" fill="#007a50"/>
    </g>
    <g id="logo-logo" transform="translate(43.295 24.566)">
      <g id="Group_7325" data-name="Group 7325" transform="translate(-7.018 -6.73)">
        <g id="Group_7318" data-name="Group 7318" transform="translate(34.866 27.55)">
          <path id="Path_646" data-name="Path 646" d="M909.185-1074.334,897.94-1063.09a6.714,6.714,0,0,1-9.5,0h0a6.714,6.714,0,0,1,0-9.5l11.213-11.214a11.664,11.664,0,0,0-15.844.6l-35.365,35.363,16.488,16.488a11.674,11.674,0,0,0,16.509,0l35.364-35.363-7.622-7.622" transform="translate(-848.447 1086.614)" fill="#ee161f"/>
        </g>
        <g id="Group_7319" data-name="Group 7319" transform="translate(0 1.211)">
          <path id="Path_647" data-name="Path 647" d="M663.925-1187.23,629.059-1222.1c8.492.845,12.3,2.75,17.591,6.228.675-15.025,8.255-29.279,17.219-36.478-9.981,18.8-9.133,48.064.056,65.116" transform="translate(-629.059 1252.347)" fill="#ee161f"/>
        </g>
        <g id="Group_7320" data-name="Group 7320" transform="translate(32.659 19.834)">
          <path id="Path_648" data-name="Path 648" d="M834.561-1135.163a32.345,32.345,0,0,0,5.381,4.555c.948.656,1.909,1.28,2.88,1.859a29.008,29.008,0,0,0,2.917,1.531l2.108.936-1.5,1.988a37.215,37.215,0,0,0-5.981,13.631,63.868,63.868,0,0,0-1.37,7.614q-.239,1.939-.322,3.907a25,25,0,0,0,.1,3.987,14.686,14.686,0,0,1-1.509-3.832,27.141,27.141,0,0,1-.7-4.078,34.989,34.989,0,0,1,.2-8.284,33.634,33.634,0,0,1,2.175-8.1,25.394,25.394,0,0,1,4.5-7.284l.608,2.924a20.02,20.02,0,0,1-3.161-2.236,24.214,24.214,0,0,1-2.674-2.647,20.548,20.548,0,0,1-2.206-3.03,12.491,12.491,0,0,1-1.436-3.437" transform="translate(-834.561 1135.163)" fill="#ee161f"/>
        </g>
        <g id="Group_7321" data-name="Group 7321" transform="translate(37.455 8.221)">
          <path id="Path_649" data-name="Path 649" d="M864.74-1195.262a18.211,18.211,0,0,1,.645-2.814,24.007,24.007,0,0,1,1.012-2.72c.381-.888.808-1.751,1.246-2.6s.9-1.685,1.38-2.507l1.352-2.328,1.291,2.62c.646,1.311,1.364,2.588,2.127,3.838s1.582,2.468,2.445,3.654,1.763,2.344,2.7,3.471,1.918,2.208,2.927,3.249l1.335,1.378-1.256,1.416a53.725,53.725,0,0,0-4.775,6.388,68.614,68.614,0,0,0-3.983,7.046,58.182,58.182,0,0,0-3.063,7.542,48.407,48.407,0,0,0-1.863,8.066,26.47,26.47,0,0,1-.3-4.225,30.737,30.737,0,0,1,.3-4.26,41.894,41.894,0,0,1,2.065-8.321,50.449,50.449,0,0,1,3.594-7.811c.71-1.249,1.464-2.477,2.292-3.662a36.407,36.407,0,0,1,2.679-3.472l.08,2.794a41.254,41.254,0,0,1-3.187-3.551,45.081,45.081,0,0,1-2.774-3.855,41.864,41.864,0,0,1-2.335-4.141,34.1,34.1,0,0,1-1.811-4.413l2.643.293c-1.178,1.45-2.379,2.872-3.523,4.333-.57.731-1.128,1.471-1.674,2.231s-1.056,1.552-1.571,2.363" transform="translate(-864.74 1208.233)" fill="#ee161f"/>
        </g>
        <g id="Group_7322" data-name="Group 7322" transform="translate(45.458)">
          <path id="Path_650" data-name="Path 650" d="M918.639-1245.61q.5-1.627,1.132-3.2.617-1.587,1.38-3.12a34.124,34.124,0,0,1,3.643-5.883l1.676-2.147.911,2.773c.558,1.693,1.219,3.384,1.913,5.059s1.44,3.337,2.225,4.975,1.6,3.257,2.457,4.831a39.147,39.147,0,0,0,2.766,4.435l1.139,1.538-1.408,1.244c-2.155,1.906-4.278,4.054-6.324,6.207-2.043,2.172-4.04,4.4-5.935,6.7a76.726,76.726,0,0,0-5.323,7.174,27.554,27.554,0,0,0-3.789,8.107,16.1,16.1,0,0,1,.57-4.594,28.654,28.654,0,0,1,1.536-4.407,52.774,52.774,0,0,1,4.518-8.125,80.567,80.567,0,0,1,5.6-7.383c1-1.176,2.026-2.333,3.1-3.453s2.16-2.225,3.361-3.291l-.268,2.784a35.137,35.137,0,0,1-3.126-5c-.9-1.694-1.691-3.424-2.436-5.17s-1.407-3.521-1.994-5.329a49.738,49.738,0,0,1-1.5-5.538l2.589.627a53.355,53.355,0,0,0-4.336,4.859c-.688.864-1.363,1.746-2.042,2.636l-2.03,2.7" transform="translate(-915.094 1259.964)" fill="#ee161f"/>
        </g>
        <g id="Group_7323" data-name="Group 7323" transform="translate(76.012 41.842)">
          <path id="Path_651" data-name="Path 651" d="M1115.555-992.579a4.1,4.1,0,0,1-4.1,4.1,4.1,4.1,0,0,1-4.1-4.1,4.1,4.1,0,0,1,4.1-4.1,4.1,4.1,0,0,1,4.1,4.1" transform="translate(-1107.349 996.681)" fill="#ee161f"/>
        </g>
        <g id="Group_7324" data-name="Group 7324" transform="translate(4.665 17.99)">
          <path id="Path_652" data-name="Path 652" d="M669.908-1141.018a5.749,5.749,0,0,1-5.749,5.749,5.75,5.75,0,0,1-5.749-5.749,5.75,5.75,0,0,1,5.749-5.749,5.749,5.749,0,0,1,5.749,5.749" transform="translate(-658.41 1146.767)" fill="#ee161f"/>
        </g>
      </g>
    </g>
  </g>
</svg>
